  0
SECTION
  2
HEADER
  9
$ACADVER
  1
AC1015
  9
$ACADMAINTVER
 70
    20
  9
$DWGCODEPAGE
  3
ANSI_936
  9
$INSBASE
 10
0.0
 20
0.0
 30
0.0
  9
$EXTMIN
 10
0.0
 20
0.0
 30
-0.00000001
  9
$EXTMAX
 10
297.0
 20
210.0
 30
0.00000001
  9
$LIMMIN
 10
0.0
 20
0.0
  9
$LIMMAX
 10
297.0
 20
210.0
  9
$ORTHOMODE
 70
     0
  9
$REGENMODE
 70
     1
  9
$FILLMODE
 70
     1
  9
$QTEXTMODE
 70
     0
  9
$MIRRTEXT
 70
     0
  9
$LTSCALE
 40
16.335
  9
$ATTMODE
 70
     1
  9
$TEXTSIZE
 40
0.2
  9
$TRACEWID
 40
0.05
  9
$TEXTSTYLE
  7
STANDARD
  9
$CLAYER
  8
0
  9
$CELTYPE
  6
BYLAYER
  9
$CECOLOR
 62
   256
  9
$CELTSCALE
 40
1.0
  9
$DISPSILH
 70
     0
  9
$DIMSCALE
 40
1.0
  9
$DIMASZ
 40
3.5
  9
$DIMEXO
 40
1.85625
  9
$DIMDLI
 40
11.286
  9
$DIMRND
 40
0.0
  9
$DIMDLE
 40
0.0
  9
$DIMEXE
 40
5.346
  9
$DIMTP
 40
0.01
  9
$DIMTM
 40
0.01
  9
$DIMTXT
 40
3.5
  9
$DIMCEN
 40
2.673
  9
$DIMTSZ
 40
0.0
  9
$DIMTOL
 70
     1
  9
$DIMLIM
 70
     0
  9
$DIMTIH
 70
     1
  9
$DIMTOH
 70
     1
  9
$DIMSE1
 70
     0
  9
$DIMSE2
 70
     0
  9
$DIMTAD
 70
     0
  9
$DIMZIN
 70
     0
  9
$DIMBLK
  1

  9
$DIMASO
 70
     1
  9
$DIMSHO
 70
     1
  9
$DIMPOST
  1

  9
$DIMAPOST
  1

  9
$DIMALT
 70
     0
  9
$DIMALTD
 70
     2
  9
$DIMALTF
 40
25.4
  9
$DIMLFAC
 40
1.0
  9
$DIMTOFL
 70
     0
  9
$DIMTVP
 40
0.0
  9
$DIMTIX
 70
     0
  9
$DIMSOXD
 70
     0
  9
$DIMSAH
 70
     0
  9
$DIMBLK1
  1

  9
$DIMBLK2
  1

  9
$DIMSTYLE
  2
STANDARD
  9
$DIMCLRD
 70
     0
  9
$DIMCLRE
 70
     0
  9
$DIMCLRT
 70
     0
  9
$DIMTFAC
 40
1.0
  9
$DIMGAP
 40
0.09
  9
$DIMJUST
 70
     0
  9
$DIMSD1
 70
     0
  9
$DIMSD2
 70
     0
  9
$DIMTOLJ
 70
     1
  9
$DIMTZIN
 70
     0
  9
$DIMALTZ
 70
     0
  9
$DIMALTTZ
 70
     0
  9
$DIMUPT
 70
     0
  9
$DIMDEC
 70
     4
  9
$DIMTDEC
 70
     4
  9
$DIMALTU
 70
     2
  9
$DIMALTTD
 70
     2
  9
$DIMTXSTY
  7
STANDARD
  9
$DIMAUNIT
 70
     0
  9
$DIMADEC
 70
     0
  9
$DIMALTRND
 40
0.0
  9
$DIMAZIN
 70
     0
  9
$DIMDSEP
 70
    46
  9
$DIMATFIT
 70
     3
  9
$DIMFRAC
 70
     0
  9
$DIMLDRBLK
  1

  9
$DIMLUNIT
 70
     2
  9
$DIMLWD
 70
    -2
  9
$DIMLWE
 70
    -2
  9
$DIMTMOVE
 70
     0
  9
$LUNITS
 70
     2
  9
$LUPREC
 70
     4
  9
$SKETCHINC
 40
0.1
  9
$FILLETRAD
 40
0.0
  9
$AUNITS
 70
     0
  9
$AUPREC
 70
     0
  9
$MENU
  1
.
  9
$ELEVATION
 40
0.0
  9
$PELEVATION
 40
0.0
  9
$THICKNESS
 40
0.0
  9
$LIMCHECK
 70
     0
  9
$CHAMFERA
 40
0.0
  9
$CHAMFERB
 40
0.0
  9
$CHAMFERC
 40
0.0
  9
$CHAMFERD
 40
0.0
  9
$SKPOLY
 70
     0
  9
$TDCREATE
 40
2458383.648856539
  9
$TDUCREATE
 40
2458383.315523206
  9
$TDUPDATE
 40
2458383.656827627
  9
$TDUUPDATE
 40
2458383.323494294
  9
$TDINDWG
 40
0.0074607870
  9
$TDUSRTIMER
 40
0.0074607870
  9
$USRTIMER
 70
     1
  9
$ANGBASE
 50
0.0
  9
$ANGDIR
 70
     0
  9
$PDMODE
 70
     3
  9
$PDSIZE
 40
8.0
  9
$PLINEWID
 40
0.0
  9
$SPLFRAME
 70
     0
  9
$SPLINETYPE
 70
     6
  9
$SPLINESEGS
 70
     8
  9
$HANDSEED
  5
573
  9
$SURFTAB1
 70
     6
  9
$SURFTAB2
 70
     6
  9
$SURFTYPE
 70
     6
  9
$SURFU
 70
     6
  9
$SURFV
 70
     6
  9
$UCSBASE
  2

  9
$UCSNAME
  2

  9
$UCSORG
 10
0.0
 20
0.0
 30
0.0
  9
$UCSXDIR
 10
1.0
 20
0.0
 30
0.0
  9
$UCSYDIR
 10
0.0
 20
1.0
 30
0.0
  9
$UCSORTHOREF
  2

  9
$UCSORTHOVIEW
 70
     0
  9
$UCSORGTOP
 10
0.0
 20
0.0
 30
0.0
  9
$UCSORGBOTTOM
 10
0.0
 20
0.0
 30
0.0
  9
$UCSORGLEFT
 10
0.0
 20
0.0
 30
0.0
  9
$UCSORGRIGHT
 10
0.0
 20
0.0
 30
0.0
  9
$UCSORGFRONT
 10
0.0
 20
0.0
 30
0.0
  9
$UCSORGBACK
 10
0.0
 20
0.0
 30
0.0
  9
$PUCSBASE
  2

  9
$PUCSNAME
  2

  9
$PUCSORG
 10
0.0
 20
0.0
 30
0.0
  9
$PUCSXDIR
 10
1.0
 20
0.0
 30
0.0
  9
$PUCSYDIR
 10
0.0
 20
1.0
 30
0.0
  9
$PUCSORTHOREF
  2

  9
$PUCSORTHOVIEW
 70
     0
  9
$PUCSORGTOP
 10
0.0
 20
0.0
 30
0.0
  9
$PUCSORGBOTTOM
 10
0.0
 20
0.0
 30
0.0
  9
$PUCSORGLEFT
 10
0.0
 20
0.0
 30
0.0
  9
$PUCSORGRIGHT
 10
0.0
 20
0.0
 30
0.0
  9
$PUCSORGFRONT
 10
0.0
 20
0.0
 30
0.0
  9
$PUCSORGBACK
 10
0.0
 20
0.0
 30
0.0
  9
$USERI1
 70
     0
  9
$USERI2
 70
     0
  9
$USERI3
 70
     0
  9
$USERI4
 70
     0
  9
$USERI5
 70
     0
  9
$USERR1
 40
0.0
  9
$USERR2
 40
0.0
  9
$USERR3
 40
0.0
  9
$USERR4
 40
0.0
  9
$USERR5
 40
0.0
  9
$WORLDVIEW
 70
     1
  9
$SHADEDGE
 70
     3
  9
$SHADEDIF
 70
    70
  9
$TILEMODE
 70
     1
  9
$MAXACTVP
 70
    64
  9
$PINSBASE
 10
0.0
 20
0.0
 30
0.0
  9
$PLIMCHECK
 70
     0
  9
$PEXTMIN
 10
1.000000000000000E+20
 20
1.000000000000000E+20
 30
1.000000000000000E+20
  9
$PEXTMAX
 10
-1.000000000000000E+20
 20
-1.000000000000000E+20
 30
-1.000000000000000E+20
  9
$PLIMMIN
 10
0.0
 20
0.0
  9
$PLIMMAX
 10
12.0
 20
9.0
  9
$UNITMODE
 70
     0
  9
$VISRETAIN
 70
     1
  9
$PLINEGEN
 70
     0
  9
$PSLTSCALE
 70
     1
  9
$TREEDEPTH
 70
  3020
  9
$CMLSTYLE
  2
Standard
  9
$CMLJUST
 70
     0
  9
$CMLSCALE
 40
1.0
  9
$PROXYGRAPHICS
 70
     1
  9
$MEASUREMENT
 70
     1
  9
$CELWEIGHT
370
    -1
  9
$ENDCAPS
280
     0
  9
$JOINSTYLE
280
     0
  9
$LWDISPLAY
290
     0
  9
$INSUNITS
 70
     4
  9
$HYPERLINKBASE
  1

  9
$STYLESHEET
  1

  9
$XEDIT
290
     1
  9
$CEPSNTYPE
380
     0
  9
$PSTYLEMODE
290
     1
  9
$FINGERPRINTGUID
  2
{EE3DE2D6-C027-4FA2-8681-783B63C0F20F}
  9
$VERSIONGUID
  2
{686141FC-85A3-4BAC-BA3B-2E5D19A46804}
  9
$EXTNAMES
290
     1
  9
$PSVPSCALE
 40
0.0
  9
$OLESTARTUP
290
     0
  0
ENDSEC
  0
SECTION
  2
CLASSES
  0
CLASS
  1
ACDBDICTIONARYWDFLT
  2
AcDbDictionaryWithDefault
  3
ObjectDBX Classes
 90
        0
280
     0
281
     0
  0
CLASS
  1
ACDBPLACEHOLDER
  2
AcDbPlaceHolder
  3
ObjectDBX Classes
 90
        0
280
     0
281
     0
  0
CLASS
  1
LAYOUT
  2
AcDbLayout
  3
ObjectDBX Classes
 90
        0
280
     0
281
     0
  0
CLASS
  1
MATERIAL
  2
AcDbMaterial
  3
ObjectDBX Classes
 90
        0
280
     0
281
     0
  0
CLASS
  1
VISUALSTYLE
  2
AcDbVisualStyle
  3
ObjectDBX Classes
 90
     4095
280
     0
281
     0
  0
CLASS
  1
TABLESTYLE
  2
AcDbTableStyle
  3
ObjectDBX Classes
 90
     4095
280
     0
281
     0
  0
CLASS
  1
SCALE
  2
AcDbScale
  3
ObjectDBX Classes
 90
     1153
280
     0
281
     0
  0
CLASS
  1
MLEADERSTYLE
  2
AcDbMLeaderStyle
  3
ACDB_MLEADERSTYLE_CLASS
 90
     4095
280
     0
281
     0
  0
CLASS
  1
CELLSTYLEMAP
  2
AcDbCellStyleMap
  3
ObjectDBX Classes
 90
     1152
280
     0
281
     0
  0
CLASS
  1
DICTIONARYVAR
  2
AcDbDictionaryVar
  3
ObjectDBX Classes
 90
        0
280
     0
281
     0
  0
CLASS
  1
SORTENTSTABLE
  2
AcDbSortentsTable
  3
ObjectDBX Classes
 90
        0
280
     0
281
     0
  0
ENDSEC
  0
SECTION
  2
TABLES
  0
TABLE
  2
VPORT
  5
8
102
{ACAD_XDICTIONARY
360
31A
102
}
330
0
100
AcDbSymbolTable
 70
     6
  0
VPORT
  5
54C
330
8
100
AcDbSymbolTableRecord
100
AcDbViewportTableRecord
  2
*Active
 70
     0
 10
0.0
 20
0.0
 11
1.0
 21
1.0
 12
148.5
 22
105.0
 13
0.0
 23
0.0
 14
1.0
 24
1.0
 15
0.0
 25
0.0
 16
0.0
 26
0.0
 36
1.0
 17
0.0
 27
0.0
 37
0.0
 40
1049.999999511057
 41
2.639777468706536
 42
50.0
 43
0.0
 44
0.0
 50
0.0
 51
0.0
 71
     0
 72
   100
 73
     1
 74
     1
 75
     0
 76
     0
 77
     0
 78
     0
281
     0
 65
     1
110
0.0
120
0.0
130
0.0
111
1.0
121
0.0
131
0.0
112
0.0
122
1.0
132
0.0
 79
     0
146
0.0
  0
ENDTAB
  0
TABLE
  2
LTYPE
  5
5
330
0
100
AcDbSymbolTable
 70
     6
  0
LTYPE
  5
14
330
5
100
AcDbSymbolTableRecord
100
AcDbLinetypeTableRecord
  2
BYBLOCK
 70
     0
  3

 72
    65
 73
     0
 40
0.0
  0
LTYPE
  5
15
330
5
100
AcDbSymbolTableRecord
100
AcDbLinetypeTableRecord
  2
BYLAYER
 70
     0
  3

 72
    65
 73
     0
 40
0.0
  0
LTYPE
  5
16
330
5
100
AcDbSymbolTableRecord
100
AcDbLinetypeTableRecord
  2
CONTINUOUS
 70
     0
  3
Solid line
 72
    65
 73
     0
 40
0.0
  0
LTYPE
  5
1F5
330
5
100
AcDbSymbolTableRecord
100
AcDbLinetypeTableRecord
  2
CENTER
 70
     0
  3
____ _ ____ _ ____ _ ____ _ ____ _ ____ _ ____
 72
    65
 73
     4
 40
0.6
 49
0.375
 74
     0
 49
-0.075
 74
     0
 49
0.075
 74
     0
 49
-0.075
 74
     0
  0
LTYPE
  5
1F6
330
5
100
AcDbSymbolTableRecord
100
AcDbLinetypeTableRecord
  2
HIDDEN
 70
     0
  3
- - - - - - - - - - - - - - - - - - - -
 72
    65
 73
     2
 40
0.2
 49
0.1
 74
     0
 49
-0.1
 74
     0
  0
LTYPE
  5
1F7
330
5
100
AcDbSymbolTableRecord
100
AcDbLinetypeTableRecord
  2
PHANTOM
 70
     0
  3
_____ _ _ _____ _ _ _____ _ _ _____
 72
    65
 73
     6
 40
0.8
 49
0.45
 74
     0
 49
-0.05
 74
     0
 49
0.1
 74
     0
 49
-0.05
 74
     0
 49
0.1
 74
     0
 49
-0.05
 74
     0
  0
LTYPE
  5
1F8
330
5
100
AcDbSymbolTableRecord
100
AcDbLinetypeTableRecord
  2
DOT
 70
     0
  3
. . . . . . . . . . . . . . . . . . . .
 72
    65
 73
     2
 40
0.2
 49
0.1
 74
     0
 49
-0.1
 74
     0
  0
LTYPE
  5
1F9
330
5
100
AcDbSymbolTableRecord
100
AcDbLinetypeTableRecord
  2
DASHED
 70
     0
  3
- - - - - - - - - - - - - - - - - - - -
 72
    65
 73
     2
 40
0.2
 49
0.1
 74
     0
 49
-0.1
 74
     0
  0
ENDTAB
  0
TABLE
  2
LAYER
  5
2
102
{ACAD_XDICTIONARY
360
548
102
}
330
0
100
AcDbSymbolTable
 70
    31
  0
LAYER
  5
10
330
2
100
AcDbSymbolTableRecord
100
AcDbLayerTableRecord
  2
0
 70
     0
 62
     7
  6
CONTINUOUS
370
    -3
390
F
  0
LAYER
  5
44E
330
2
100
AcDbSymbolTableRecord
100
AcDbLayerTableRecord
  2
Defpoints
 70
     0
 62
     7
  6
CONTINUOUS
290
     0
370
    -3
390
F
  0
ENDTAB
  0
TABLE
  2
STYLE
  5
3
330
0
100
AcDbSymbolTable
 70
     2
  0
STYLE
  5
11
330
3
100
AcDbSymbolTableRecord
100
AcDbTextStyleTableRecord
  2
STANDARD
 70
     0
 40
0.0
 41
0.85
 50
0.0
 71
     0
 42
0.2
  3
txt
  4

  0
STYLE
  5
217
330
3
100
AcDbSymbolTableRecord
100
AcDbTextStyleTableRecord
  2
TEXTSTYLE_1
 70
     0
 40
0.0
 41
0.8
 50
0.0
 71
     0
 42
0.2
  3
gdt
  4

  0
ENDTAB
  0
TABLE
  2
VIEW
  5
6
330
0
100
AcDbSymbolTable
 70
     0
  0
ENDTAB
  0
TABLE
  2
UCS
  5
7
330
0
100
AcDbSymbolTable
 70
     0
  0
ENDTAB
  0
TABLE
  2
APPID
  5
9
330
0
100
AcDbSymbolTable
 70
     2
  0
APPID
  5
218
330
9
100
AcDbSymbolTableRecord
100
AcDbRegAppTableRecord
  2
ACAD
 70
     0
  0
APPID
  5
316
330
9
100
AcDbSymbolTableRecord
100
AcDbRegAppTableRecord
  2
ACAD_MLEADERVER
 70
     0
  0
ENDTAB
  0
TABLE
  2
DIMSTYLE
  5
A
330
0
100
AcDbSymbolTable
 70
     1
100
AcDbDimStyleTable
 71
     1
340
21B
  0
DIMSTYLE
105
21B
330
A
100
AcDbSymbolTableRecord
100
AcDbDimStyleTableRecord
  2
STANDARD
 70
     0
 41
3.5
 47
0.01
 48
0.01
 71
     1
 73
     0
 74
     0
 77
     1
 78
     8
140
3.5
271
     2
272
     2
284
     8
340
11
  0
ENDTAB
  0
TABLE
  2
BLOCK_RECORD
  5
1
330
0
100
AcDbSymbolTable
 70
     2
  0
BLOCK_RECORD
  5
219
102
{ACAD_XDICTIONARY
360
371
102
}
330
1
100
AcDbSymbolTableRecord
100
AcDbBlockTableRecord
  2
*Model_Space
340
2C1
  0
BLOCK_RECORD
  5
21A
330
1
100
AcDbSymbolTableRecord
100
AcDbBlockTableRecord
  2
*Paper_Space
340
2C2
  0
BLOCK_RECORD
  5
450
330
1
100
AcDbSymbolTableRecord
100
AcDbBlockTableRecord
  2
*D0
340
0
  0
BLOCK_RECORD
  5
469
330
1
100
AcDbSymbolTableRecord
100
AcDbBlockTableRecord
  2
*D1
340
0
  0
ENDTAB
  0
ENDSEC
  0
SECTION
  2
BLOCKS
  0
BLOCK
  5
20
330
219
100
AcDbEntity
  8
0
100
AcDbBlockBegin
  2
*Model_Space
 70
     0
 10
0.0
 20
0.0
 30
0.0
  3
*Model_Space
  1

1001
ACAD
1000
RTMaterial
1005
2C6
1000
RTMaterial
1005
0
  0
ENDBLK
  5
21
330
219
100
AcDbEntity
  8
0
100
AcDbBlockEnd
1001
ACAD
1000
RTMaterial
1005
2C6
1000
RTMaterial
1005
0
  0
BLOCK
  5
1C
330
21A
100
AcDbEntity
 67
     1
  8
0
100
AcDbBlockBegin
  2
*Paper_Space
 70
     0
 10
0.0
 20
0.0
 30
0.0
  3
*Paper_Space
  1

1001
ACAD
1000
RTMaterial
1005
2C6
1000
RTMaterial
1005
0
  0
ENDBLK
  5
1D
330
21A
100
AcDbEntity
 67
     1
  8
0
100
AcDbBlockEnd
1001
ACAD
1000
RTMaterial
1005
2C6
1000
RTMaterial
1005
0
  0
BLOCK
  5
45B
330
450
100
AcDbEntity
  8
0
100
AcDbBlockBegin
  2
*D0
 70
     1
 10
0.0
 20
0.0
 30
0.0
  3
*D0
  1

  0
LINE
  5
45D
330
450
100
AcDbEntity
  8
0
 62
     0
370
    -2
100
AcDbLine
 10
189.95324375
 20
94.75937499999998
 30
0.0
 11
189.95324375
 21
74.37104668106229
 31
0.0
  0
LINE
  5
45E
330
450
100
AcDbEntity
  8
0
 62
     0
370
    -2
100
AcDbLine
 10
213.45324375
 20
83.55937500000001
 30
0.0
 11
213.45324375
 21
74.37104668106229
 31
0.0
  0
LINE
  5
45F
330
450
100
AcDbEntity
  8
0
 62
     0
370
    -2
100
AcDbLine
 10
182.95324375
 20
79.7170466810623
 30
0.0
 11
186.45324375
 21
79.7170466810623
 31
0.0
  0
LINE
  5
460
330
450
100
AcDbEntity
  8
0
 62
     0
370
    -2
100
AcDbLine
 10
186.45324375
 20
79.7170466810623
 30
0.0
 11
189.95324375
 21
79.7170466810623
 31
0.0
  0
LINE
  5
461
330
450
100
AcDbEntity
  8
0
 62
     0
370
    -2
100
AcDbLine
 10
193.45324375
 20
79.7170466810623
 30
0.0
 11
209.95324375
 21
79.7170466810623
 31
0.0
  0
SOLID
  5
462
330
450
100
AcDbEntity
  8
0
 62
     0
100
AcDbTrace
 10
193.45324375
 20
80.30038001439562
 30
0.0
 11
193.45324375
 21
79.13371334772897
 31
0.0
 12
189.95324375
 22
79.7170466810623
 32
0.0
 13
189.95324375
 23
79.7170466810623
 33
0.0
  0
SOLID
  5
463
330
450
100
AcDbEntity
  8
0
 62
     0
100
AcDbTrace
 10
209.95324375
 20
79.13371334772897
 30
0.0
 11
209.95324375
 21
80.30038001439562
 31
0.0
 12
213.45324375
 22
79.7170466810623
 32
0.0
 13
213.45324375
 23
79.7170466810623
 33
0.0
  0
MTEXT
  5
464
330
450
100
AcDbEntity
  8
0
 62
     0
100
AcDbMText
 10
166.7486604166666
 20
79.7170466810623
 30
0.0
 40
3.5
 41
0.0
 71
     5
 72
     5
  1
\A1;23.5000%%p0.0100
 73
     1
 44
1.0
  0
POINT
  5
465
330
450
100
AcDbEntity
  8
Defpoints
 62
     0
100
AcDbPoint
 10
189.95324375
 20
96.615625
 30
0.0
  0
POINT
  5
466
330
450
100
AcDbEntity
  8
Defpoints
 62
     0
100
AcDbPoint
 10
213.45324375
 20
85.41562500000001
 30
0.0
  0
POINT
  5
467
330
450
100
AcDbEntity
  8
Defpoints
 62
     0
100
AcDbPoint
 10
213.45324375
 20
79.7170466810623
 30
0.0
  0
ENDBLK
  5
45C
330
450
100
AcDbEntity
  8
0
100
AcDbBlockEnd
  0
BLOCK
  5
474
330
469
100
AcDbEntity
  8
0
100
AcDbBlockBegin
  2
*D1
 70
     1
 10
0.0
 20
0.0
 30
0.0
  3
*D1
  1

  0
LINE
  5
46A
330
469
100
AcDbEntity
  8
0
 62
     0
370
    -2
100
AcDbLine
 10
201.95324375
 20
87.27187500000001
 30
0.0
 11
201.95324375
 21
90.761625
 31
0.0
  0
LINE
  5
46B
330
469
100
AcDbEntity
  8
0
 62
     0
370
    -2
100
AcDbLine
 10
213.45324375
 20
87.27187500000001
 30
0.0
 11
213.45324375
 21
90.761625
 31
0.0
  0
LINE
  5
46C
330
469
100
AcDbEntity
  8
0
 62
     0
370
    -2
100
AcDbLine
 10
213.45324375
 20
85.41562500000001
 30
0.0
 11
216.95324375
 21
85.41562500000001
 31
0.0
  0
LINE
  5
46D
330
469
100
AcDbEntity
  8
0
 62
     0
370
    -2
100
AcDbLine
 10
205.45324375
 20
85.41562500000001
 30
0.0
 11
209.95324375
 21
85.41562500000001
 31
0.0
  0
SOLID
  5
46E
330
469
100
AcDbEntity
  8
0
 62
     0
100
AcDbTrace
 10
205.45324375
 20
85.99895833333333
 30
0.0
 11
205.45324375
 21
84.83229166666667
 31
0.0
 12
201.95324375
 22
85.41562500000001
 32
0.0
 13
201.95324375
 23
85.41562500000001
 33
0.0
  0
SOLID
  5
46F
330
469
100
AcDbEntity
  8
0
 62
     0
100
AcDbTrace
 10
209.95324375
 20
84.83229166666667
 30
0.0
 11
209.95324375
 21
85.99895833333333
 31
0.0
 12
213.45324375
 22
85.41562500000001
 32
0.0
 13
213.45324375
 23
85.41562500000001
 33
0.0
  0
MTEXT
  5
470
330
469
100
AcDbEntity
  8
0
 62
     0
100
AcDbMText
 10
232.1661604166667
 20
85.41562500000001
 30
0.0
 40
3.5
 41
0.0
 71
     5
 72
     5
  1
\A1;11.5000%%p0.0100
 73
     1
 44
1.0
  0
POINT
  5
471
330
469
100
AcDbEntity
  8
Defpoints
 62
     0
100
AcDbPoint
 10
201.95324375
 20
85.41562500000001
 30
0.0
  0
POINT
  5
472
330
469
100
AcDbEntity
  8
Defpoints
 62
     0
100
AcDbPoint
 10
213.45324375
 20
85.41562500000001
 30
0.0
  0
POINT
  5
473
330
469
100
AcDbEntity
  8
Defpoints
 62
     0
100
AcDbPoint
 10
213.45324375
 20
85.41562500000001
 30
0.0
  0
ENDBLK
  5
475
330
469
100
AcDbEntity
  8
0
100
AcDbBlockEnd
  0
ENDSEC
  0
SECTION
  2
ENTITIES
  0
LINE
  5
21C
330
219
100
AcDbEntity
  8
0
  6
Continuous
 62
     7
100
AcDbLine
 10
0.0
 20
0.0
 30
0.0
 11
0.0
 21
210.0
 31
0.0
1001
ACAD
1000
RTMaterial
1005
2C6
1000
RTMaterial
1005
0
  0
LINE
  5
21D
330
219
100
AcDbEntity
  8
0
  6
Continuous
 62
     7
100
AcDbLine
 10
0.0
 20
0.0
 30
0.0
 11
297.0
 21
0.0
 31
0.0
1001
ACAD
1000
RTMaterial
1005
2C6
1000
RTMaterial
1005
0
  0
LINE
  5
21E
330
219
100
AcDbEntity
  8
0
  6
Continuous
 62
     7
100
AcDbLine
 10
0.0
 20
210.0
 30
0.0
 11
297.0
 21
210.0
 31
0.0
1001
ACAD
1000
RTMaterial
1005
2C6
1000
RTMaterial
1005
0
  0
LINE
  5
21F
330
219
100
AcDbEntity
  8
0
  6
Continuous
 62
     7
100
AcDbLine
 10
297.0
 20
0.0
 30
0.0
 11
297.0
 21
210.0
 31
0.0
1001
ACAD
1000
RTMaterial
1005
2C6
1000
RTMaterial
1005
0
  0
LINE
  5
220
330
219
100
AcDbEntity
  8
0
  6
Continuous
 62
     7
100
AcDbLine
 10
113.095703125
 20
70.515625
 30
0.0
 11
133.595703125
 21
70.515625
 31
0.0
1001
ACAD
1000
RTMaterial
1005
2C6
1000
RTMaterial
1005
0
  0
LINE
  5
221
330
219
100
AcDbEntity
  8
0
  6
Continuous
 62
     7
100
AcDbLine
 10
113.095703125
 20
85.41562500000001
 30
0.0
 11
133.595703125
 21
85.41562500000001
 31
0.0
1001
ACAD
1000
RTMaterial
1005
2C6
1000
RTMaterial
1005
0
  0
LINE
  5
222
330
219
100
AcDbEntity
  8
0
  6
Continuous
 62
     7
100
AcDbLine
 10
110.095703125
 20
88.415625
 30
0.0
 11
113.095703125
 21
85.41562500000001
 31
0.0
1001
ACAD
1000
RTMaterial
1005
2C6
1000
RTMaterial
1005
0
  0
LINE
  5
223
330
219
100
AcDbEntity
  8
0
  6
Continuous
 62
     7
100
AcDbLine
 10
109.095703125
 20
138.015625
 30
0.0
 11
109.095703125
 21
74.515625
 31
0.0
1001
ACAD
1000
RTMaterial
1005
2C6
1000
RTMaterial
1005
0
  0
LINE
  5
224
330
219
100
AcDbEntity
  8
0
  6
Continuous
 62
     7
100
AcDbLine
 10
110.095703125
 20
108.915625
 30
0.0
 11
110.095703125
 21
88.415625
 31
0.0
1001
ACAD
1000
RTMaterial
1005
2C6
1000
RTMaterial
1005
0
  0
LINE
  5
225
330
219
100
AcDbEntity
  8
0
  6
Continuous
 62
     7
100
AcDbLine
 10
110.695703125
 20
123.265625
 30
0.0
 11
110.695703125
 21
121.265625
 31
0.0
1001
ACAD
1000
RTMaterial
1005
2C6
1000
RTMaterial
1005
0
  0
LINE
  5
226
330
219
100
AcDbEntity
  8
0
  6
Continuous
 62
     7
100
AcDbLine
 10
111.620703125
 20
119.765625
 30
0.0
 11
111.620703125
 21
121.265625
 31
0.0
1001
ACAD
1000
RTMaterial
1005
2C6
1000
RTMaterial
1005
0
  0
LINE
  5
227
330
219
100
AcDbEntity
  8
0
  6
Continuous
 62
     7
100
AcDbLine
 10
112.620703125
 20
121.265625
 30
0.0
 11
112.620703125
 21
119.765625
 31
0.0
1001
ACAD
1000
RTMaterial
1005
2C6
1000
RTMaterial
1005
0
  0
LINE
  5
228
330
219
100
AcDbEntity
  8
0
  6
Continuous
 62
     7
100
AcDbLine
 10
113.095703125
 20
111.915625
 30
0.0
 11
110.095703125
 21
108.915625
 31
0.0
1001
ACAD
1000
RTMaterial
1005
2C6
1000
RTMaterial
1005
0
  0
LINE
  5
229
330
219
100
AcDbEntity
  8
0
  6
Continuous
 62
     7
100
AcDbLine
 10
113.620703125
 20
123.265625
 30
0.0
 11
113.620703125
 21
124.765625
 31
0.0
1001
ACAD
1000
RTMaterial
1005
2C6
1000
RTMaterial
1005
0
  0
LINE
  5
22A
330
219
100
AcDbEntity
  8
0
  6
Continuous
 62
     7
100
AcDbLine
 10
114.620703125
 20
124.765625
 30
0.0
 11
114.620703125
 21
123.265625
 31
0.0
1001
ACAD
1000
RTMaterial
1005
2C6
1000
RTMaterial
1005
0
  0
LINE
  5
22B
330
219
100
AcDbEntity
  8
0
  6
Continuous
 62
     7
100
AcDbLine
 10
115.370703125
 20
122.565625
 30
0.0
 11
115.370703125
 21
121.965625
 31
0.0
1001
ACAD
1000
RTMaterial
1005
2C6
1000
RTMaterial
1005
0
  0
LINE
  5
22C
330
219
100
AcDbEntity
  8
0
  6
Continuous
 62
     7
100
AcDbLine
 10
115.620703125
 20
123.265625
 30
0.0
 11
115.620703125
 21
124.765625
 31
0.0
1001
ACAD
1000
RTMaterial
1005
2C6
1000
RTMaterial
1005
0
  0
LINE
  5
22D
330
219
100
AcDbEntity
  8
0
  6
Continuous
 62
     7
100
AcDbLine
 10
116.595703125
 20
136.815625
 30
0.0
 11
116.595703125
 21
138.915625
 31
0.0
1001
ACAD
1000
RTMaterial
1005
2C6
1000
RTMaterial
1005
0
  0
LINE
  5
22E
330
219
100
AcDbEntity
  8
0
  6
Continuous
 62
     7
100
AcDbLine
 10
116.620703125
 20
124.765625
 30
0.0
 11
116.620703125
 21
123.265625
 31
0.0
1001
ACAD
1000
RTMaterial
1005
2C6
1000
RTMaterial
1005
0
  0
LINE
  5
22F
330
219
100
AcDbEntity
  8
0
  6
Continuous
 62
     7
100
AcDbLine
 10
116.745703125
 20
136.615625
 30
0.0
 11
116.745703125
 21
141.715625
 31
0.0
1001
ACAD
1000
RTMaterial
1005
2C6
1000
RTMaterial
1005
0
  0
LINE
  5
230
330
219
100
AcDbEntity
  8
0
  6
Continuous
 62
     7
100
AcDbLine
 10
116.870703125
 20
121.965625
 30
0.0
 11
116.870703125
 21
122.565625
 31
0.0
1001
ACAD
1000
RTMaterial
1005
2C6
1000
RTMaterial
1005
0
  0
LINE
  5
231
330
219
100
AcDbEntity
  8
0
  6
Continuous
 62
     7
100
AcDbLine
 10
116.945703125
 20
141.815625
 30
0.0
 11
116.945703125
 21
136.515625
 31
0.0
1001
ACAD
1000
RTMaterial
1005
2C6
1000
RTMaterial
1005
0
  0
LINE
  5
232
330
219
100
AcDbEntity
  8
0
  6
Continuous
 62
     7
100
AcDbLine
 10
117.620703125
 20
119.765625
 30
0.0
 11
117.620703125
 21
121.265625
 31
0.0
1001
ACAD
1000
RTMaterial
1005
2C6
1000
RTMaterial
1005
0
  0
LINE
  5
233
330
219
100
AcDbEntity
  8
0
  6
Continuous
 62
     7
100
AcDbLine
 10
117.620703125
 20
123.265625
 30
0.0
 11
117.620703125
 21
124.765625
 31
0.0
1001
ACAD
1000
RTMaterial
1005
2C6
1000
RTMaterial
1005
0
  0
LINE
  5
234
330
219
100
AcDbEntity
  8
0
  6
Continuous
 62
     7
100
AcDbLine
 10
118.620703125
 20
124.765625
 30
0.0
 11
118.620703125
 21
123.265625
 31
0.0
1001
ACAD
1000
RTMaterial
1005
2C6
1000
RTMaterial
1005
0
  0
LINE
  5
235
330
219
100
AcDbEntity
  8
0
  6
Continuous
 62
     7
100
AcDbLine
 10
118.620703125
 20
121.265625
 30
0.0
 11
118.620703125
 21
119.765625
 31
0.0
1001
ACAD
1000
RTMaterial
1005
2C6
1000
RTMaterial
1005
0
  0
LINE
  5
236
330
219
100
AcDbEntity
  8
0
  6
Continuous
 62
     9
100
AcDbLine
 10
119.345703125
 20
139.165625
 30
0.0
 11
119.345703125
 21
141.165625
 31
0.0
1001
ACAD
1000
RTMaterial
1005
2C6
1000
RTMaterial
1005
0
  0
LINE
  5
237
330
219
100
AcDbEntity
  8
0
  6
Continuous
 62
     7
100
AcDbLine
 10
119.545703125
 20
121.265625
 30
0.0
 11
119.545703125
 21
123.265625
 31
0.0
1001
ACAD
1000
RTMaterial
1005
2C6
1000
RTMaterial
1005
0
  0
LINE
  5
238
330
219
100
AcDbEntity
  8
0
  6
Continuous
 62
     7
100
AcDbLine
 10
120.045703125
 20
123.065625
 30
0.0
 11
120.045703125
 21
121.465625
 31
0.0
1001
ACAD
1000
RTMaterial
1005
2C6
1000
RTMaterial
1005
0
  0
LINE
  5
239
330
219
100
AcDbEntity
  8
0
  6
Continuous
 62
     7
100
AcDbLine
 10
120.845703125
 20
121.465625
 30
0.0
 11
120.845703125
 21
123.065625
 31
0.0
1001
ACAD
1000
RTMaterial
1005
2C6
1000
RTMaterial
1005
0
  0
LINE
  5
23A
330
219
100
AcDbEntity
  8
0
  6
Continuous
 62
     7
100
AcDbLine
 10
121.095703125
 20
124.515625
 30
0.0
 11
121.095703125
 21
120.015625
 31
0.0
1001
ACAD
1000
RTMaterial
1005
2C6
1000
RTMaterial
1005
0
  0
LINE
  5
23B
330
219
100
AcDbEntity
  8
0
  6
Continuous
 62
     7
100
AcDbLine
 10
122.545703125
 20
126.565625
 30
0.0
 11
122.545703125
 21
125.765625
 31
0.0
1001
ACAD
1000
RTMaterial
1005
2C6
1000
RTMaterial
1005
0
  0
LINE
  5
23C
330
219
100
AcDbEntity
  8
0
  6
Continuous
 62
     7
100
AcDbLine
 10
122.545703125
 20
118.765625
 30
0.0
 11
122.545703125
 21
117.965625
 31
0.0
1001
ACAD
1000
RTMaterial
1005
2C6
1000
RTMaterial
1005
0
  0
LINE
  5
23D
330
219
100
AcDbEntity
  8
0
  6
Continuous
 62
     7
100
AcDbLine
 10
124.145703125
 20
117.965625
 30
0.0
 11
124.145703125
 21
118.765625
 31
0.0
1001
ACAD
1000
RTMaterial
1005
2C6
1000
RTMaterial
1005
0
  0
LINE
  5
23E
330
219
100
AcDbEntity
  8
0
  6
Continuous
 62
     7
100
AcDbLine
 10
124.145703125
 20
125.765625
 30
0.0
 11
124.145703125
 21
126.565625
 31
0.0
1001
ACAD
1000
RTMaterial
1005
2C6
1000
RTMaterial
1005
0
  0
LINE
  5
23F
330
219
100
AcDbEntity
  8
0
  6
Continuous
 62
     7
100
AcDbLine
 10
125.595703125
 20
120.015625
 30
0.0
 11
125.595703125
 21
124.515625
 31
0.0
1001
ACAD
1000
RTMaterial
1005
2C6
1000
RTMaterial
1005
0
  0
LINE
  5
240
330
219
100
AcDbEntity
  8
0
  6
Continuous
 62
     7
100
AcDbLine
 10
125.845703125
 20
123.065625
 30
0.0
 11
125.845703125
 21
121.465625
 31
0.0
1001
ACAD
1000
RTMaterial
1005
2C6
1000
RTMaterial
1005
0
  0
LINE
  5
241
330
219
100
AcDbEntity
  8
0
  6
Continuous
 62
     7
100
AcDbLine
 10
126.645703125
 20
121.465625
 30
0.0
 11
126.645703125
 21
123.065625
 31
0.0
1001
ACAD
1000
RTMaterial
1005
2C6
1000
RTMaterial
1005
0
  0
LINE
  5
242
330
219
100
AcDbEntity
  8
0
  6
Continuous
 62
     7
100
AcDbLine
 10
127.145703125
 20
123.265625
 30
0.0
 11
127.145703125
 21
121.265625
 31
0.0
1001
ACAD
1000
RTMaterial
1005
2C6
1000
RTMaterial
1005
0
  0
LINE
  5
243
330
219
100
AcDbEntity
  8
0
  6
Continuous
 62
     9
100
AcDbLine
 10
127.345703125
 20
139.165625
 30
0.0
 11
127.345703125
 21
141.165625
 31
0.0
1001
ACAD
1000
RTMaterial
1005
2C6
1000
RTMaterial
1005
0
  0
LINE
  5
244
330
219
100
AcDbEntity
  8
0
  6
Continuous
 62
     7
100
AcDbLine
 10
128.070703125
 20
119.765625
 30
0.0
 11
128.070703125
 21
121.265625
 31
0.0
1001
ACAD
1000
RTMaterial
1005
2C6
1000
RTMaterial
1005
0
  0
LINE
  5
245
330
219
100
AcDbEntity
  8
0
  6
Continuous
 62
     7
100
AcDbLine
 10
128.070703125
 20
123.265625
 30
0.0
 11
128.070703125
 21
124.765625
 31
0.0
1001
ACAD
1000
RTMaterial
1005
2C6
1000
RTMaterial
1005
0
  0
LINE
  5
246
330
219
100
AcDbEntity
  8
0
  6
Continuous
 62
     7
100
AcDbLine
 10
129.070703125
 20
124.765625
 30
0.0
 11
129.070703125
 21
123.265625
 31
0.0
1001
ACAD
1000
RTMaterial
1005
2C6
1000
RTMaterial
1005
0
  0
LINE
  5
247
330
219
100
AcDbEntity
  8
0
  6
Continuous
 62
     7
100
AcDbLine
 10
129.070703125
 20
121.265625
 30
0.0
 11
129.070703125
 21
119.765625
 31
0.0
1001
ACAD
1000
RTMaterial
1005
2C6
1000
RTMaterial
1005
0
  0
LINE
  5
248
330
219
100
AcDbEntity
  8
0
  6
Continuous
 62
     7
100
AcDbLine
 10
129.745703125
 20
136.515625
 30
0.0
 11
129.745703125
 21
141.815625
 31
0.0
1001
ACAD
1000
RTMaterial
1005
2C6
1000
RTMaterial
1005
0
  0
LINE
  5
249
330
219
100
AcDbEntity
  8
0
  6
Continuous
 62
     7
100
AcDbLine
 10
129.820703125
 20
122.565625
 30
0.0
 11
129.820703125
 21
121.965625
 31
0.0
1001
ACAD
1000
RTMaterial
1005
2C6
1000
RTMaterial
1005
0
  0
LINE
  5
24A
330
219
100
AcDbEntity
  8
0
  6
Continuous
 62
     7
100
AcDbLine
 10
129.945703125
 20
141.715625
 30
0.0
 11
129.945703125
 21
136.615625
 31
0.0
1001
ACAD
1000
RTMaterial
1005
2C6
1000
RTMaterial
1005
0
  0
LINE
  5
24B
330
219
100
AcDbEntity
  8
0
  6
Continuous
 62
     7
100
AcDbLine
 10
130.070703125
 20
119.765625
 30
0.0
 11
130.070703125
 21
121.265625
 31
0.0
1001
ACAD
1000
RTMaterial
1005
2C6
1000
RTMaterial
1005
0
  0
LINE
  5
24C
330
219
100
AcDbEntity
  8
0
  6
Continuous
 62
     7
100
AcDbLine
 10
130.095703125
 20
138.915625
 30
0.0
 11
130.095703125
 21
136.815625
 31
0.0
1001
ACAD
1000
RTMaterial
1005
2C6
1000
RTMaterial
1005
0
  0
LINE
  5
24D
330
219
100
AcDbEntity
  8
0
  6
Continuous
 62
     7
100
AcDbLine
 10
131.070703125
 20
121.265625
 30
0.0
 11
131.070703125
 21
119.765625
 31
0.0
1001
ACAD
1000
RTMaterial
1005
2C6
1000
RTMaterial
1005
0
  0
LINE
  5
24E
330
219
100
AcDbEntity
  8
0
  6
Continuous
 62
     7
100
AcDbLine
 10
131.320703125
 20
121.965625
 30
0.0
 11
131.320703125
 21
122.565625
 31
0.0
1001
ACAD
1000
RTMaterial
1005
2C6
1000
RTMaterial
1005
0
  0
LINE
  5
24F
330
219
100
AcDbEntity
  8
0
  6
Continuous
 62
     7
100
AcDbLine
 10
133.595703125
 20
111.915625
 30
0.0
 11
113.095703125
 21
111.915625
 31
0.0
1001
ACAD
1000
RTMaterial
1005
2C6
1000
RTMaterial
1005
0
  0
LINE
  5
250
330
219
100
AcDbEntity
  8
0
  6
Continuous
 62
     7
100
AcDbLine
 10
132.070703125
 20
119.765625
 30
0.0
 11
132.070703125
 21
121.265625
 31
0.0
1001
ACAD
1000
RTMaterial
1005
2C6
1000
RTMaterial
1005
0
  0
LINE
  5
251
330
219
100
AcDbEntity
  8
0
  6
Continuous
 62
     7
100
AcDbLine
 10
133.070703125
 20
121.265625
 30
0.0
 11
133.070703125
 21
119.765625
 31
0.0
1001
ACAD
1000
RTMaterial
1005
2C6
1000
RTMaterial
1005
0
  0
LINE
  5
252
330
219
100
AcDbEntity
  8
0
  6
Continuous
 62
     7
100
AcDbLine
 10
134.070703125
 20
123.265625
 30
0.0
 11
134.070703125
 21
124.765625
 31
0.0
1001
ACAD
1000
RTMaterial
1005
2C6
1000
RTMaterial
1005
0
  0
LINE
  5
253
330
219
100
AcDbEntity
  8
0
  6
Continuous
 62
     7
100
AcDbLine
 10
135.070703125
 20
124.765625
 30
0.0
 11
135.070703125
 21
123.265625
 31
0.0
1001
ACAD
1000
RTMaterial
1005
2C6
1000
RTMaterial
1005
0
  0
LINE
  5
254
330
219
100
AcDbEntity
  8
0
  6
Continuous
 62
     7
100
AcDbLine
 10
135.995703125
 20
121.265625
 30
0.0
 11
135.995703125
 21
123.265625
 31
0.0
1001
ACAD
1000
RTMaterial
1005
2C6
1000
RTMaterial
1005
0
  0
LINE
  5
255
330
219
100
AcDbEntity
  8
0
  6
Continuous
 62
     7
100
AcDbLine
 10
122.545703125
 20
117.965625
 30
0.0
 11
124.145703125
 21
117.965625
 31
0.0
1001
ACAD
1000
RTMaterial
1005
2C6
1000
RTMaterial
1005
0
  0
LINE
  5
256
330
219
100
AcDbEntity
  8
0
  6
Continuous
 62
     7
100
AcDbLine
 10
124.145703125
 20
118.765625
 30
0.0
 11
122.545703125
 21
118.765625
 31
0.0
1001
ACAD
1000
RTMaterial
1005
2C6
1000
RTMaterial
1005
0
  0
LINE
  5
257
330
219
100
AcDbEntity
  8
0
  6
Continuous
 62
     7
100
AcDbLine
 10
136.595703125
 20
108.915625
 30
0.0
 11
133.595703125
 21
111.915625
 31
0.0
1001
ACAD
1000
RTMaterial
1005
2C6
1000
RTMaterial
1005
0
  0
LINE
  5
258
330
219
100
AcDbEntity
  8
0
  6
Continuous
 62
     7
100
AcDbLine
 10
136.595703125
 20
88.415625
 30
0.0
 11
136.595703125
 21
108.915625
 31
0.0
1001
ACAD
1000
RTMaterial
1005
2C6
1000
RTMaterial
1005
0
  0
LINE
  5
259
330
219
100
AcDbEntity
  8
0
  6
Continuous
 62
     7
100
AcDbLine
 10
137.595703125
 20
74.515625
 30
0.0
 11
137.595703125
 21
138.015625
 31
0.0
1001
ACAD
1000
RTMaterial
1005
2C6
1000
RTMaterial
1005
0
  0
LINE
  5
25A
330
219
100
AcDbEntity
  8
0
  6
Continuous
 62
     7
100
AcDbLine
 10
133.070703125
 20
119.765625
 30
0.0
 11
132.070703125
 21
119.765625
 31
0.0
1001
ACAD
1000
RTMaterial
1005
2C6
1000
RTMaterial
1005
0
  0
LINE
  5
25B
330
219
100
AcDbEntity
  8
0
  6
Continuous
 62
     7
100
AcDbLine
 10
131.070703125
 20
119.765625
 30
0.0
 11
130.070703125
 21
119.765625
 31
0.0
1001
ACAD
1000
RTMaterial
1005
2C6
1000
RTMaterial
1005
0
  0
LINE
  5
25C
330
219
100
AcDbEntity
  8
0
  6
Continuous
 62
     7
100
AcDbLine
 10
129.070703125
 20
119.765625
 30
0.0
 11
128.070703125
 21
119.765625
 31
0.0
1001
ACAD
1000
RTMaterial
1005
2C6
1000
RTMaterial
1005
0
  0
LINE
  5
25D
330
219
100
AcDbEntity
  8
0
  6
Continuous
 62
     7
100
AcDbLine
 10
118.620703125
 20
119.765625
 30
0.0
 11
117.620703125
 21
119.765625
 31
0.0
1001
ACAD
1000
RTMaterial
1005
2C6
1000
RTMaterial
1005
0
  0
LINE
  5
25E
330
219
100
AcDbEntity
  8
0
  6
Continuous
 62
     7
100
AcDbLine
 10
112.620703125
 20
119.765625
 30
0.0
 11
111.620703125
 21
119.765625
 31
0.0
1001
ACAD
1000
RTMaterial
1005
2C6
1000
RTMaterial
1005
0
  0
LINE
  5
25F
330
219
100
AcDbEntity
  8
0
  6
Continuous
 62
     7
100
AcDbLine
 10
121.095703125
 20
120.015625
 30
0.0
 11
125.595703125
 21
120.015625
 31
0.0
1001
ACAD
1000
RTMaterial
1005
2C6
1000
RTMaterial
1005
0
  0
LINE
  5
260
330
219
100
AcDbEntity
  8
0
  6
Continuous
 62
     7
100
AcDbLine
 10
110.695703125
 20
121.265625
 30
0.0
 11
119.545703125
 21
121.265625
 31
0.0
1001
ACAD
1000
RTMaterial
1005
2C6
1000
RTMaterial
1005
0
  0
LINE
  5
261
330
219
100
AcDbEntity
  8
0
  6
Continuous
 62
     7
100
AcDbLine
 10
127.145703125
 20
121.265625
 30
0.0
 11
135.995703125
 21
121.265625
 31
0.0
1001
ACAD
1000
RTMaterial
1005
2C6
1000
RTMaterial
1005
0
  0
LINE
  5
262
330
219
100
AcDbEntity
  8
0
  6
Continuous
 62
     7
100
AcDbLine
 10
120.045703125
 20
121.465625
 30
0.0
 11
120.845703125
 21
121.465625
 31
0.0
1001
ACAD
1000
RTMaterial
1005
2C6
1000
RTMaterial
1005
0
  0
LINE
  5
263
330
219
100
AcDbEntity
  8
0
  6
Continuous
 62
     7
100
AcDbLine
 10
125.845703125
 20
121.465625
 30
0.0
 11
126.645703125
 21
121.465625
 31
0.0
1001
ACAD
1000
RTMaterial
1005
2C6
1000
RTMaterial
1005
0
  0
LINE
  5
264
330
219
100
AcDbEntity
  8
0
  6
Continuous
 62
     7
100
AcDbLine
 10
115.370703125
 20
121.965625
 30
0.0
 11
116.870703125
 21
121.965625
 31
0.0
1001
ACAD
1000
RTMaterial
1005
2C6
1000
RTMaterial
1005
0
  0
LINE
  5
265
330
219
100
AcDbEntity
  8
0
  6
Continuous
 62
     7
100
AcDbLine
 10
129.820703125
 20
121.965625
 30
0.0
 11
131.320703125
 21
121.965625
 31
0.0
1001
ACAD
1000
RTMaterial
1005
2C6
1000
RTMaterial
1005
0
  0
LINE
  5
266
330
219
100
AcDbEntity
  8
0
  6
Continuous
 62
     7
100
AcDbLine
 10
131.320703125
 20
122.565625
 30
0.0
 11
129.820703125
 21
122.565625
 31
0.0
1001
ACAD
1000
RTMaterial
1005
2C6
1000
RTMaterial
1005
0
  0
LINE
  5
267
330
219
100
AcDbEntity
  8
0
  6
Continuous
 62
     7
100
AcDbLine
 10
116.870703125
 20
122.565625
 30
0.0
 11
115.370703125
 21
122.565625
 31
0.0
1001
ACAD
1000
RTMaterial
1005
2C6
1000
RTMaterial
1005
0
  0
LINE
  5
268
330
219
100
AcDbEntity
  8
0
  6
Continuous
 62
     7
100
AcDbLine
 10
126.645703125
 20
123.065625
 30
0.0
 11
125.845703125
 21
123.065625
 31
0.0
1001
ACAD
1000
RTMaterial
1005
2C6
1000
RTMaterial
1005
0
  0
LINE
  5
269
330
219
100
AcDbEntity
  8
0
  6
Continuous
 62
     7
100
AcDbLine
 10
120.845703125
 20
123.065625
 30
0.0
 11
120.045703125
 21
123.065625
 31
0.0
1001
ACAD
1000
RTMaterial
1005
2C6
1000
RTMaterial
1005
0
  0
LINE
  5
26A
330
219
100
AcDbEntity
  8
0
  6
Continuous
 62
     7
100
AcDbLine
 10
135.995703125
 20
123.265625
 30
0.0
 11
127.145703125
 21
123.265625
 31
0.0
1001
ACAD
1000
RTMaterial
1005
2C6
1000
RTMaterial
1005
0
  0
LINE
  5
26B
330
219
100
AcDbEntity
  8
0
  6
Continuous
 62
     7
100
AcDbLine
 10
119.545703125
 20
123.265625
 30
0.0
 11
110.695703125
 21
123.265625
 31
0.0
1001
ACAD
1000
RTMaterial
1005
2C6
1000
RTMaterial
1005
0
  0
LINE
  5
26C
330
219
100
AcDbEntity
  8
0
  6
Continuous
 62
     7
100
AcDbLine
 10
125.595703125
 20
124.515625
 30
0.0
 11
121.095703125
 21
124.515625
 31
0.0
1001
ACAD
1000
RTMaterial
1005
2C6
1000
RTMaterial
1005
0
  0
LINE
  5
26D
330
219
100
AcDbEntity
  8
0
  6
Continuous
 62
     7
100
AcDbLine
 10
113.620703125
 20
124.765625
 30
0.0
 11
114.620703125
 21
124.765625
 31
0.0
1001
ACAD
1000
RTMaterial
1005
2C6
1000
RTMaterial
1005
0
  0
LINE
  5
26E
330
219
100
AcDbEntity
  8
0
  6
Continuous
 62
     7
100
AcDbLine
 10
115.620703125
 20
124.765625
 30
0.0
 11
116.620703125
 21
124.765625
 31
0.0
1001
ACAD
1000
RTMaterial
1005
2C6
1000
RTMaterial
1005
0
  0
LINE
  5
26F
330
219
100
AcDbEntity
  8
0
  6
Continuous
 62
     7
100
AcDbLine
 10
117.620703125
 20
124.765625
 30
0.0
 11
118.620703125
 21
124.765625
 31
0.0
1001
ACAD
1000
RTMaterial
1005
2C6
1000
RTMaterial
1005
0
  0
LINE
  5
270
330
219
100
AcDbEntity
  8
0
  6
Continuous
 62
     7
100
AcDbLine
 10
128.070703125
 20
124.765625
 30
0.0
 11
129.070703125
 21
124.765625
 31
0.0
1001
ACAD
1000
RTMaterial
1005
2C6
1000
RTMaterial
1005
0
  0
LINE
  5
271
330
219
100
AcDbEntity
  8
0
  6
Continuous
 62
     7
100
AcDbLine
 10
134.070703125
 20
124.765625
 30
0.0
 11
135.070703125
 21
124.765625
 31
0.0
1001
ACAD
1000
RTMaterial
1005
2C6
1000
RTMaterial
1005
0
  0
LINE
  5
272
330
219
100
AcDbEntity
  8
0
  6
Continuous
 62
     7
100
AcDbLine
 10
122.545703125
 20
125.765625
 30
0.0
 11
124.145703125
 21
125.765625
 31
0.0
1001
ACAD
1000
RTMaterial
1005
2C6
1000
RTMaterial
1005
0
  0
LINE
  5
273
330
219
100
AcDbEntity
  8
0
  6
Continuous
 62
     7
100
AcDbLine
 10
124.145703125
 20
126.565625
 30
0.0
 11
122.545703125
 21
126.565625
 31
0.0
1001
ACAD
1000
RTMaterial
1005
2C6
1000
RTMaterial
1005
0
  0
LINE
  5
274
330
219
100
AcDbEntity
  8
0
  6
Continuous
 62
     7
100
AcDbLine
 10
133.595703125
 20
85.41562500000001
 30
0.0
 11
136.595703125
 21
88.415625
 31
0.0
1001
ACAD
1000
RTMaterial
1005
2C6
1000
RTMaterial
1005
0
  0
LINE
  5
275
330
219
100
AcDbEntity
  8
0
  6
Continuous
 62
     7
100
AcDbLine
 10
129.645703125
 20
136.315625
 30
0.0
 11
117.045703125
 21
136.315625
 31
0.0
1001
ACAD
1000
RTMaterial
1005
2C6
1000
RTMaterial
1005
0
  0
LINE
  5
276
330
219
100
AcDbEntity
  8
0
  6
Continuous
 62
     7
100
AcDbLine
 10
116.945703125
 20
136.515625
 30
0.0
 11
129.745703125
 21
136.515625
 31
0.0
1001
ACAD
1000
RTMaterial
1005
2C6
1000
RTMaterial
1005
0
  0
LINE
  5
277
330
219
100
AcDbEntity
  8
0
  6
Continuous
 62
     7
100
AcDbLine
 10
130.095703125
 20
136.815625
 30
0.0
 11
129.945703125
 21
136.815625
 31
0.0
1001
ACAD
1000
RTMaterial
1005
2C6
1000
RTMaterial
1005
0
  0
LINE
  5
278
330
219
100
AcDbEntity
  8
0
  6
Continuous
 62
     7
100
AcDbLine
 10
116.745703125
 20
136.815625
 30
0.0
 11
116.595703125
 21
136.815625
 31
0.0
1001
ACAD
1000
RTMaterial
1005
2C6
1000
RTMaterial
1005
0
  0
LINE
  5
279
330
219
100
AcDbEntity
  8
0
  6
Continuous
 62
     7
100
AcDbLine
 10
116.595703125
 20
138.915625
 30
0.0
 11
116.745703125
 21
138.915625
 31
0.0
1001
ACAD
1000
RTMaterial
1005
2C6
1000
RTMaterial
1005
0
  0
LINE
  5
27A
330
219
100
AcDbEntity
  8
0
  6
Continuous
 62
     7
100
AcDbLine
 10
129.945703125
 20
138.915625
 30
0.0
 11
130.095703125
 21
138.915625
 31
0.0
1001
ACAD
1000
RTMaterial
1005
2C6
1000
RTMaterial
1005
0
  0
LINE
  5
27B
330
219
100
AcDbEntity
  8
0
  6
Continuous
 62
     7
100
AcDbLine
 10
127.345703125
 20
139.165625
 30
0.0
 11
119.345703125
 21
139.165625
 31
0.0
1001
ACAD
1000
RTMaterial
1005
2C6
1000
RTMaterial
1005
0
  0
LINE
  5
27C
330
219
100
AcDbEntity
  8
0
  6
Continuous
 62
     7
100
AcDbLine
 10
119.345703125
 20
141.165625
 30
0.0
 11
127.345703125
 21
141.165625
 31
0.0
1001
ACAD
1000
RTMaterial
1005
2C6
1000
RTMaterial
1005
0
  0
LINE
  5
27D
330
219
100
AcDbEntity
  8
0
  6
Continuous
 62
     7
100
AcDbLine
 10
129.745703125
 20
141.815625
 30
0.0
 11
116.945703125
 21
141.815625
 31
0.0
1001
ACAD
1000
RTMaterial
1005
2C6
1000
RTMaterial
1005
0
  0
LINE
  5
27E
330
219
100
AcDbEntity
  8
0
  6
Continuous
 62
     7
100
AcDbLine
 10
113.095703125
 20
142.015625
 30
0.0
 11
133.595703125
 21
142.015625
 31
0.0
1001
ACAD
1000
RTMaterial
1005
2C6
1000
RTMaterial
1005
0
  0
LINE
  5
27F
330
219
100
AcDbEntity
  8
0
  6
Continuous
 62
     7
100
AcDbLine
 10
213.45324375
 20
70.515625
 30
0.0
 11
215.05324375
 21
70.515625
 31
0.0
1001
ACAD
1000
RTMaterial
1005
2C6
1000
RTMaterial
1005
0
  0
LINE
  5
280
330
219
100
AcDbEntity
  8
0
  6
Continuous
 62
     9
100
AcDbLine
 10
213.45324375
 20
74.515625
 30
0.0
 11
215.05324375
 21
74.515625
 31
0.0
1001
ACAD
1000
RTMaterial
1005
2C6
1000
RTMaterial
1005
0
  0
LINE
  5
281
330
219
100
AcDbEntity
  8
0
  6
Continuous
 62
     7
100
AcDbLine
 10
201.95324375
 20
85.41562500000001
 30
0.0
 11
213.45324375
 21
85.41562500000001
 31
0.0
1001
ACAD
1000
RTMaterial
1005
2C6
1000
RTMaterial
1005
0
  0
LINE
  5
282
330
219
100
AcDbEntity
  8
0
  6
Continuous
 62
     7
100
AcDbLine
 10
201.95324375
 20
88.415625
 30
0.0
 11
213.45324375
 21
88.415625
 31
0.0
1001
ACAD
1000
RTMaterial
1005
2C6
1000
RTMaterial
1005
0
  0
LINE
  5
283
330
219
100
AcDbEntity
  8
0
  6
Continuous
 62
     9
100
AcDbLine
 10
186.95324375
 20
97.665625
 30
0.0
 11
186.95324375
 21
99.66562500000001
 31
0.0
1001
ACAD
1000
RTMaterial
1005
2C6
1000
RTMaterial
1005
0
  0
LINE
  5
284
330
219
100
AcDbEntity
  8
0
  6
Continuous
 62
     7
100
AcDbLine
 10
189.95324375
 20
96.615625
 30
0.0
 11
189.95324375
 21
100.715625
 31
0.0
1001
ACAD
1000
RTMaterial
1005
2C6
1000
RTMaterial
1005
0
  0
LINE
  5
285
330
219
100
AcDbEntity
  8
0
  6
Continuous
 62
     7
100
AcDbLine
 10
201.95324375
 20
96.615625
 30
0.0
 11
189.95324375
 21
96.615625
 31
0.0
1001
ACAD
1000
RTMaterial
1005
2C6
1000
RTMaterial
1005
0
  0
LINE
  5
286
330
219
100
AcDbEntity
  8
0
  6
Continuous
 62
     7
100
AcDbLine
 10
189.95324375
 20
97.665625
 30
0.0
 11
186.95324375
 21
97.665625
 31
0.0
1001
ACAD
1000
RTMaterial
1005
2C6
1000
RTMaterial
1005
0
  0
LINE
  5
287
330
219
100
AcDbEntity
  8
0
  6
Continuous
 62
     7
100
AcDbLine
 10
189.95324375
 20
99.66562500000001
 30
0.0
 11
186.95324375
 21
99.66562500000001
 31
0.0
1001
ACAD
1000
RTMaterial
1005
2C6
1000
RTMaterial
1005
0
  0
LINE
  5
288
330
219
100
AcDbEntity
  8
0
  6
Continuous
 62
     7
100
AcDbLine
 10
201.95324375
 20
100.715625
 30
0.0
 11
189.95324375
 21
100.715625
 31
0.0
1001
ACAD
1000
RTMaterial
1005
2C6
1000
RTMaterial
1005
0
  0
LINE
  5
289
330
219
100
AcDbEntity
  8
0
  6
Continuous
 62
     7
100
AcDbLine
 10
200.45324375
 20
136.315625
 30
0.0
 11
200.45324375
 21
142.015625
 31
0.0
1001
ACAD
1000
RTMaterial
1005
2C6
1000
RTMaterial
1005
0
  0
LINE
  5
28A
330
219
100
AcDbEntity
  8
0
  6
Continuous
 62
     7
100
AcDbLine
 10
201.95324375
 20
85.41562500000001
 30
0.0
 11
201.95324375
 21
111.915625
 31
0.0
1001
ACAD
1000
RTMaterial
1005
2C6
1000
RTMaterial
1005
0
  0
LINE
  5
28B
330
219
100
AcDbEntity
  8
0
  6
Continuous
 62
     7
100
AcDbLine
 10
201.95324375
 20
108.915625
 30
0.0
 11
213.45324375
 21
108.915625
 31
0.0
1001
ACAD
1000
RTMaterial
1005
2C6
1000
RTMaterial
1005
0
  0
LINE
  5
28C
330
219
100
AcDbEntity
  8
0
  6
Continuous
 62
     7
100
AcDbLine
 10
208.45324375
 20
121.965625
 30
0.0
 11
208.45324375
 21
122.565625
 31
0.0
1001
ACAD
1000
RTMaterial
1005
2C6
1000
RTMaterial
1005
0
  0
LINE
  5
28D
330
219
100
AcDbEntity
  8
0
  6
Continuous
 62
     7
100
AcDbLine
 10
201.95324375
 20
111.915625
 30
0.0
 11
213.45324375
 21
111.915625
 31
0.0
1001
ACAD
1000
RTMaterial
1005
2C6
1000
RTMaterial
1005
0
  0
LINE
  5
28E
330
219
100
AcDbEntity
  8
0
  6
Continuous
 62
     7
100
AcDbLine
 10
209.65324375
 20
121.0156468483
 30
0.0
 11
209.65324375
 21
121.965625
 31
0.0
1001
ACAD
1000
RTMaterial
1005
2C6
1000
RTMaterial
1005
0
  0
LINE
  5
28F
330
219
100
AcDbEntity
  8
0
  6
Continuous
 62
     7
100
AcDbLine
 10
209.65324375
 20
122.565625
 30
0.0
 11
209.65324375
 21
123.5156031517
 31
0.0
1001
ACAD
1000
RTMaterial
1005
2C6
1000
RTMaterial
1005
0
  0
LINE
  5
290
330
219
100
AcDbEntity
  8
0
  6
Continuous
 62
     7
100
AcDbLine
 10
210.25324375
 20
120.015625
 30
0.0
 11
210.25324375
 21
121.965625
 31
0.0
1001
ACAD
1000
RTMaterial
1005
2C6
1000
RTMaterial
1005
0
  0
LINE
  5
291
330
219
100
AcDbEntity
  8
0
  6
Continuous
 62
     7
100
AcDbLine
 10
210.25324375
 20
122.565625
 30
0.0
 11
210.25324375
 21
124.515625
 31
0.0
1001
ACAD
1000
RTMaterial
1005
2C6
1000
RTMaterial
1005
0
  0
LINE
  5
292
330
219
100
AcDbEntity
  8
0
  6
Continuous
 62
     7
100
AcDbLine
 10
210.45324375
 20
121.265625
 30
0.0
 11
210.45324375
 21
123.265625
 31
0.0
1001
ACAD
1000
RTMaterial
1005
2C6
1000
RTMaterial
1005
0
  0
LINE
  5
293
330
219
100
AcDbEntity
  8
0
  6
Continuous
 62
     7
100
AcDbLine
 10
212.45324375
 20
117.965625
 30
0.0
 11
212.45324375
 21
118.765625
 31
0.0
1001
ACAD
1000
RTMaterial
1005
2C6
1000
RTMaterial
1005
0
  0
LINE
  5
294
330
219
100
AcDbEntity
  8
0
  6
Continuous
 62
     7
100
AcDbLine
 10
212.45324375
 20
125.765625
 30
0.0
 11
212.45324375
 21
126.565625
 31
0.0
1001
ACAD
1000
RTMaterial
1005
2C6
1000
RTMaterial
1005
0
  0
LINE
  5
295
330
219
100
AcDbEntity
  8
0
  6
Continuous
 62
     7
100
AcDbLine
 10
213.15324375
 20
124.765625
 30
0.0
 11
213.15324375
 21
123.265625
 31
0.0
1001
ACAD
1000
RTMaterial
1005
2C6
1000
RTMaterial
1005
0
  0
LINE
  5
296
330
219
100
AcDbEntity
  8
0
  6
Continuous
 62
     7
100
AcDbLine
 10
213.15324375
 20
121.265625
 30
0.0
 11
213.15324375
 21
119.765625
 31
0.0
1001
ACAD
1000
RTMaterial
1005
2C6
1000
RTMaterial
1005
0
  0
LINE
  5
297
330
219
100
AcDbEntity
  8
0
  6
Continuous
 62
     7
100
AcDbLine
 10
213.45324375
 20
70.515625
 30
0.0
 11
213.45324375
 21
142.015625
 31
0.0
1001
ACAD
1000
RTMaterial
1005
2C6
1000
RTMaterial
1005
0
  0
LINE
  5
298
330
219
100
AcDbEntity
  8
0
  6
Continuous
 62
     7
100
AcDbLine
 10
213.45324375
 20
117.965625
 30
0.0
 11
212.45324375
 21
117.965625
 31
0.0
1001
ACAD
1000
RTMaterial
1005
2C6
1000
RTMaterial
1005
0
  0
LINE
  5
299
330
219
100
AcDbEntity
  8
0
  6
Continuous
 62
     7
100
AcDbLine
 10
213.45324375
 20
118.765625
 30
0.0
 11
212.45324375
 21
118.765625
 31
0.0
1001
ACAD
1000
RTMaterial
1005
2C6
1000
RTMaterial
1005
0
  0
LINE
  5
29A
330
219
100
AcDbEntity
  8
0
  6
Continuous
 62
     7
100
AcDbLine
 10
215.05324375
 20
70.515625
 30
0.0
 11
215.05324375
 21
142.015625
 31
0.0
1001
ACAD
1000
RTMaterial
1005
2C6
1000
RTMaterial
1005
0
  0
LINE
  5
29B
330
219
100
AcDbEntity
  8
0
  6
Continuous
 62
     7
100
AcDbLine
 10
216.95324375
 20
138.915625
 30
0.0
 11
216.95324375
 21
136.815625
 31
0.0
1001
ACAD
1000
RTMaterial
1005
2C6
1000
RTMaterial
1005
0
  0
LINE
  5
29C
330
219
100
AcDbEntity
  8
0
  6
Continuous
 62
     7
100
AcDbLine
 10
213.45324375
 20
119.765625
 30
0.0
 11
213.15324375
 21
119.765625
 31
0.0
1001
ACAD
1000
RTMaterial
1005
2C6
1000
RTMaterial
1005
0
  0
LINE
  5
29D
330
219
100
AcDbEntity
  8
0
  6
Continuous
 62
     7
100
AcDbLine
 10
213.15324375
 20
120.015625
 30
0.0
 11
210.25324375
 21
120.015625
 31
0.0
1001
ACAD
1000
RTMaterial
1005
2C6
1000
RTMaterial
1005
0
  0
LINE
  5
29E
330
219
100
AcDbEntity
  8
0
  6
Continuous
 62
     7
100
AcDbLine
 10
210.25324375
 20
121.015625
 30
0.0
 11
209.65324375
 21
121.015625
 31
0.0
1001
ACAD
1000
RTMaterial
1005
2C6
1000
RTMaterial
1005
0
  0
LINE
  5
29F
330
219
100
AcDbEntity
  8
0
  6
Continuous
 62
     7
100
AcDbLine
 10
213.45324375
 20
121.265625
 30
0.0
 11
210.45324375
 21
121.265625
 31
0.0
1001
ACAD
1000
RTMaterial
1005
2C6
1000
RTMaterial
1005
0
  0
LINE
  5
2A0
330
219
100
AcDbEntity
  8
0
  6
Continuous
 62
     7
100
AcDbLine
 10
210.45324375
 20
121.965625
 30
0.0
 11
208.45324375
 21
121.965625
 31
0.0
1001
ACAD
1000
RTMaterial
1005
2C6
1000
RTMaterial
1005
0
  0
LINE
  5
2A1
330
219
100
AcDbEntity
  8
0
  6
Continuous
 62
     7
100
AcDbLine
 10
210.45324375
 20
122.565625
 30
0.0
 11
208.45324375
 21
122.565625
 31
0.0
1001
ACAD
1000
RTMaterial
1005
2C6
1000
RTMaterial
1005
0
  0
LINE
  5
2A2
330
219
100
AcDbEntity
  8
0
  6
Continuous
 62
     7
100
AcDbLine
 10
213.45324375
 20
123.265625
 30
0.0
 11
210.45324375
 21
123.265625
 31
0.0
1001
ACAD
1000
RTMaterial
1005
2C6
1000
RTMaterial
1005
0
  0
LINE
  5
2A3
330
219
100
AcDbEntity
  8
0
  6
Continuous
 62
     7
100
AcDbLine
 10
210.25324375
 20
123.515625
 30
0.0
 11
209.65324375
 21
123.515625
 31
0.0
1001
ACAD
1000
RTMaterial
1005
2C6
1000
RTMaterial
1005
0
  0
LINE
  5
2A4
330
219
100
AcDbEntity
  8
0
  6
Continuous
 62
     7
100
AcDbLine
 10
213.15324375
 20
124.515625
 30
0.0
 11
210.25324375
 21
124.515625
 31
0.0
1001
ACAD
1000
RTMaterial
1005
2C6
1000
RTMaterial
1005
0
  0
LINE
  5
2A5
330
219
100
AcDbEntity
  8
0
  6
Continuous
 62
     7
100
AcDbLine
 10
213.45324375
 20
124.765625
 30
0.0
 11
213.15324375
 21
124.765625
 31
0.0
1001
ACAD
1000
RTMaterial
1005
2C6
1000
RTMaterial
1005
0
  0
LINE
  5
2A6
330
219
100
AcDbEntity
  8
0
  6
Continuous
 62
     7
100
AcDbLine
 10
213.45324375
 20
125.765625
 30
0.0
 11
212.45324375
 21
125.765625
 31
0.0
1001
ACAD
1000
RTMaterial
1005
2C6
1000
RTMaterial
1005
0
  0
LINE
  5
2A7
330
219
100
AcDbEntity
  8
0
  6
Continuous
 62
     7
100
AcDbLine
 10
213.45324375
 20
126.565625
 30
0.0
 11
212.45324375
 21
126.565625
 31
0.0
1001
ACAD
1000
RTMaterial
1005
2C6
1000
RTMaterial
1005
0
  0
LINE
  5
2A8
330
219
100
AcDbEntity
  8
0
  6
Continuous
 62
     7
100
AcDbLine
 10
213.45324375
 20
136.315625
 30
0.0
 11
200.45324375
 21
136.315625
 31
0.0
1001
ACAD
1000
RTMaterial
1005
2C6
1000
RTMaterial
1005
0
  0
LINE
  5
2A9
330
219
100
AcDbEntity
  8
0
  6
Continuous
 62
     9
100
AcDbLine
 10
213.45324375
 20
136.615625
 30
0.0
 11
200.45324375
 21
136.615625
 31
0.0
1001
ACAD
1000
RTMaterial
1005
2C6
1000
RTMaterial
1005
0
  0
LINE
  5
2AA
330
219
100
AcDbEntity
  8
0
  6
Continuous
 62
     7
100
AcDbLine
 10
215.05324375
 20
136.815625
 30
0.0
 11
216.95324375
 21
136.815625
 31
0.0
1001
ACAD
1000
RTMaterial
1005
2C6
1000
RTMaterial
1005
0
  0
LINE
  5
2AB
330
219
100
AcDbEntity
  8
0
  6
Continuous
 62
     9
100
AcDbLine
 10
213.45324375
 20
138.015625
 30
0.0
 11
215.05324375
 21
138.015625
 31
0.0
1001
ACAD
1000
RTMaterial
1005
2C6
1000
RTMaterial
1005
0
  0
LINE
  5
2AC
330
219
100
AcDbEntity
  8
0
  6
Continuous
 62
     7
100
AcDbLine
 10
215.05324375
 20
138.915625
 30
0.0
 11
216.95324375
 21
138.915625
 31
0.0
1001
ACAD
1000
RTMaterial
1005
2C6
1000
RTMaterial
1005
0
  0
LINE
  5
2AD
330
219
100
AcDbEntity
  8
0
  6
Continuous
 62
     9
100
AcDbLine
 10
213.45324375
 20
141.715625
 30
0.0
 11
200.45324375
 21
141.715625
 31
0.0
1001
ACAD
1000
RTMaterial
1005
2C6
1000
RTMaterial
1005
0
  0
LINE
  5
2AE
330
219
100
AcDbEntity
  8
0
  6
Continuous
 62
     7
100
AcDbLine
 10
200.45324375
 20
142.015625
 30
0.0
 11
215.05324375
 21
142.015625
 31
0.0
1001
ACAD
1000
RTMaterial
1005
2C6
1000
RTMaterial
1005
0
  0
ARC
  5
2AF
330
219
100
AcDbEntity
  8
0
  6
Continuous
 62
     7
100
AcDbCircle
 10
133.595703125
 20
74.515625
 30
0.0
 40
4.0
100
AcDbArc
 50
270.0
 51
360.0
1001
ACAD
1000
RTMaterial
1005
2C6
1000
RTMaterial
1005
0
  0
ARC
  5
2B0
330
219
100
AcDbEntity
  8
0
  6
Continuous
 62
     7
100
AcDbCircle
 10
113.095703125
 20
74.515625
 30
0.0
 40
4.0
100
AcDbArc
 50
180.0
 51
270.0
1001
ACAD
1000
RTMaterial
1005
2C6
1000
RTMaterial
1005
0
  0
ARC
  5
2B1
330
219
100
AcDbEntity
  8
0
  6
Continuous
 62
     7
100
AcDbCircle
 10
113.095703125
 20
138.015625
 30
0.0
 40
4.0
100
AcDbArc
 50
90.0
 51
180.0
1001
ACAD
1000
RTMaterial
1005
2C6
1000
RTMaterial
1005
0
  0
ARC
  5
2B2
330
219
100
AcDbEntity
  8
0
  6
Continuous
 62
     7
100
AcDbCircle
 10
133.595703125
 20
138.015625
 30
0.0
 40
4.0
100
AcDbArc
 50
0.0
 51
90.0
1001
ACAD
1000
RTMaterial
1005
2C6
1000
RTMaterial
1005
0
  0
CIRCLE
  5
2B3
330
219
100
AcDbEntity
  8
0
  6
Continuous
 62
     7
100
AcDbCircle
 10
123.345703125
 20
98.665625
 30
0.0
 40
2.049999999999999
1001
ACAD
1000
RTMaterial
1005
2C6
  0
CIRCLE
  5
2B4
330
219
100
AcDbEntity
  8
0
  6
Continuous
 62
     7
100
AcDbCircle
 10
134.595703125
 20
138.015625
 30
0.0
 40
1.5
1001
ACAD
1000
RTMaterial
1005
2C6
1000
RTMaterial
1005
0
  0
CIRCLE
  5
2B5
330
219
100
AcDbEntity
  8
0
  6
Continuous
 62
     7
100
AcDbCircle
 10
112.095703125
 20
138.015625
 30
0.0
 40
1.5
1001
ACAD
1000
RTMaterial
1005
2C6
1000
RTMaterial
1005
0
  0
CIRCLE
  5
2B6
330
219
100
AcDbEntity
  8
0
  6
Continuous
 62
     7
100
AcDbCircle
 10
134.595703125
 20
74.515625
 30
0.0
 40
1.5
1001
ACAD
1000
RTMaterial
1005
2C6
1000
RTMaterial
1005
0
  0
CIRCLE
  5
2B7
330
219
100
AcDbEntity
  8
0
  6
Continuous
 62
     7
100
AcDbCircle
 10
112.095703125
 20
74.515625
 30
0.0
 40
1.5
1001
ACAD
1000
RTMaterial
1005
2C6
1000
RTMaterial
1005
0
  0
CIRCLE
  5
2B8
330
219
100
AcDbEntity
  8
0
  6
Continuous
 62
     7
100
AcDbCircle
 10
123.345703125
 20
122.265625
 30
0.0
 40
1.25
1001
ACAD
1000
RTMaterial
1005
2C6
1000
RTMaterial
1005
0
  0
ARC
  5
2B9
330
219
100
AcDbEntity
  8
0
  6
Continuous
 62
     7
100
AcDbCircle
 10
119.345703125
 20
140.165625
 30
0.0
 40
1.0
100
AcDbArc
 50
90.0
 51
270.0
1001
ACAD
1000
RTMaterial
1005
2C6
1000
RTMaterial
1005
0
  0
ARC
  5
2BA
330
219
100
AcDbEntity
  8
0
  6
Continuous
 62
     7
100
AcDbCircle
 10
127.345703125
 20
140.165625
 30
0.0
 40
1.0
100
AcDbArc
 50
270.0
 51
90.0
1001
ACAD
1000
RTMaterial
1005
2C6
1000
RTMaterial
1005
0
  0
CIRCLE
  5
2BB
330
219
100
AcDbEntity
  8
0
  6
Continuous
 62
     7
100
AcDbCircle
 10
123.345703125
 20
98.665625
 30
0.0
 40
1.0
1001
ACAD
1000
RTMaterial
1005
2C6
1000
RTMaterial
1005
0
  0
ARC
  5
2BC
330
219
100
AcDbEntity
  8
0
  6
Continuous
 62
     7
100
AcDbCircle
 10
129.645703125
 20
141.715625
 30
0.0
 40
0.3
100
AcDbArc
 50
0.0
 51
90.0
1001
ACAD
1000
RTMaterial
1005
2C6
1000
RTMaterial
1005
0
  0
ARC
  5
2BD
330
219
100
AcDbEntity
  8
0
  6
Continuous
 62
     7
100
AcDbCircle
 10
117.045703125
 20
141.715625
 30
0.0
 40
0.3
100
AcDbArc
 50
90.0
 51
180.0
1001
ACAD
1000
RTMaterial
1005
2C6
1000
RTMaterial
1005
0
  0
ARC
  5
2BE
330
219
100
AcDbEntity
  8
0
  6
Continuous
 62
     7
100
AcDbCircle
 10
117.045703125
 20
136.615625
 30
0.0
 40
0.3
100
AcDbArc
 50
180.0
 51
270.0
1001
ACAD
1000
RTMaterial
1005
2C6
1000
RTMaterial
1005
0
  0
ARC
  5
2BF
330
219
100
AcDbEntity
  8
0
  6
Continuous
 62
     7
100
AcDbCircle
 10
129.645703125
 20
136.615625
 30
0.0
 40
0.3
100
AcDbArc
 50
270.0
 51
360.0
1001
ACAD
1000
RTMaterial
1005
2C6
1000
RTMaterial
1005
0
  0
ARC
  5
2C0
330
219
100
AcDbEntity
  8
0
  6
Continuous
 62
     7
100
AcDbCircle
 10
186.95324375
 20
98.665625
 30
0.0
 40
1.0
100
AcDbArc
 50
90.0
 51
270.0
1001
ACAD
1000
RTMaterial
1005
2C6
1000
RTMaterial
1005
0
  0
CIRCLE
  5
36C
330
219
100
AcDbEntity
  8
0
100
AcDbCircle
 10
134.595703125
 20
138.015625
 30
0.0
 40
2.5
  0
CIRCLE
  5
36D
330
219
100
AcDbEntity
  8
0
100
AcDbCircle
 10
112.095703125
 20
138.015625
 30
0.0
 40
2.5
  0
CIRCLE
  5
36E
330
219
100
AcDbEntity
  8
0
100
AcDbCircle
 10
112.095703125
 20
74.515625
 30
0.0
 40
2.5
  0
CIRCLE
  5
36F
330
219
100
AcDbEntity
  8
0
100
AcDbCircle
 10
134.595703125
 20
74.515625
 30
0.0
 40
2.5
  0
HATCH
  5
370
330
219
100
AcDbEntity
  8
0
 62
     6
100
AcDbHatch
 10
0.0
 20
0.0
 30
0.0
210
0.0
220
0.0
230
1.0
  2
ANSI31
 70
     0
 71
     0
 91
        8
 92
        1
 93
        1
 72
     2
 10
134.595703125
 20
74.515625
 40
2.5
 50
0.0
 51
360.0
 73
     1
 97
        0
 92
       16
 93
        1
 72
     2
 10
134.595703125
 20
74.515625
 40
1.5
 50
0.0
 51
360.0
 73
     1
 97
        0
 92
        1
 93
        1
 72
     2
 10
112.095703125
 20
74.515625
 40
2.5
 50
0.0
 51
360.0
 73
     1
 97
        0
 92
       16
 93
        1
 72
     2
 10
112.095703125
 20
74.515625
 40
1.5
 50
0.0
 51
360.0
 73
     1
 97
        0
 92
        1
 93
        1
 72
     2
 10
112.095703125
 20
138.015625
 40
2.5
 50
0.0
 51
360.0
 73
     1
 97
        0
 92
       16
 93
        1
 72
     2
 10
112.095703125
 20
138.015625
 40
1.5
 50
0.0
 51
360.0
 73
     1
 97
        0
 92
       16
 93
        1
 72
     2
 10
134.595703125
 20
138.015625
 40
1.5
 50
0.0
 51
360.0
 73
     1
 97
        0
 92
        1
 93
        1
 72
     2
 10
134.595703125
 20
138.015625
 40
2.5
 50
0.0
 51
360.0
 73
     1
 97
        0
 75
     0
 76
     1
 52
0.0
 41
0.1
 77
     0
 78
     1
 53
45.0
 43
0.0
 44
0.0
 45
-0.2245064030267288
 46
0.2245064030267288
 79
     0
 98
        1
 10
0.0
 20
0.0
  0
LWPOLYLINE
  5
37A
330
219
100
AcDbEntity
  8
0
100
AcDbPolyline
 90
        4
 70
     1
 43
0.0
 10
124.3402876224837
 20
100.4581934582088
 10
122.4005286277747
 20
100.4581934582088
 10
122.4005286277747
 20
102.20019878326
 10
124.3402876224837
 20
102.20019878326
  0
LWPOLYLINE
  5
37B
330
219
100
AcDbEntity
  8
0
100
AcDbPolyline
 90
        4
 70
     1
 43
0.0
 10
122.4526052331032
 20
96.82039434897298
 10
124.3172954785475
 20
96.82039434897298
 10
124.3172954785475
 20
95.17597972664601
 10
122.4526052331032
 20
95.17597972664601
  0
ENDSEC
  0
SECTION
  2
OBJECTS
  0
DICTIONARY
  5
C
330
0
100
AcDbDictionary
281
     1
  3
ACAD_COLOR
350
2EF
  3
ACAD_GROUP
350
D
  3
ACAD_LAYOUT
350
1A
  3
ACAD_MATERIAL
350
2C5
  3
ACAD_MLEADERSTYLE
350
314
  3
ACAD_MLINESTYLE
350
17
  3
ACAD_PLOTSETTINGS
350
19
  3
ACAD_PLOTSTYLENAME
350
E
  3
ACAD_SCALELIST
350
2F2
  3
ACAD_TABLESTYLE
350
2F0
  3
ACAD_VISUALSTYLE
350
2DE
  3
ACDB_RECOMPOSE_DATA
350
319
  3
ACDBHEADERROUNDTRIPXREC
350
54E
  3
AcDbVariableDictionary
350
360
  3
DWGPROPS
350
54D
  0
DICTIONARY
  5
31A
330
8
100
AcDbDictionary
280
     1
281
     1
  3
ACAD_XREC_ROUNDTRIP
360
31B
  0
DICTIONARY
  5
548
330
2
100
AcDbDictionary
280
     1
281
     1
  3
ACAD_LAYERFILTERS
360
54A
  3
ACLYDICTIONARY
360
549
  0
DICTIONARY
  5
371
330
219
100
AcDbDictionary
280
     1
281
     1
  3
ACAD_SORTENTS
360
372
  0
DICTIONARY
  5
2EF
102
{ACAD_REACTORS
330
C
102
}
330
C
100
AcDbDictionary
281
     1
  0
DICTIONARY
  5
D
102
{ACAD_REACTORS
330
C
102
}
330
C
100
AcDbDictionary
281
     1
  0
DICTIONARY
  5
1A
102
{ACAD_REACTORS
330
C
102
}
330
C
100
AcDbDictionary
281
     1
  3
Layout1
350
2C2
  3
Model
350
2C1
  0
DICTIONARY
  5
2C5
102
{ACAD_REACTORS
330
C
102
}
330
C
100
AcDbDictionary
281
     1
  3
ByBlock
350
2CE
  3
ByLayer
350
2C6
  3
Global
350
2D6
  0
DICTIONARY
  5
314
102
{ACAD_REACTORS
330
C
102
}
330
C
100
AcDbDictionary
281
     1
  3
Standard
350
315
  0
DICTIONARY
  5
17
102
{ACAD_REACTORS
330
C
102
}
330
C
100
AcDbDictionary
281
     1
  3
Standard
350
18
  0
DICTIONARY
  5
19
102
{ACAD_REACTORS
330
C
102
}
330
C
100
AcDbDictionary
281
     1
  0
ACDBDICTIONARYWDFLT
  5
E
102
{ACAD_REACTORS
330
C
102
}
330
C
100
AcDbDictionary
281
     1
  3
Normal
350
F
100
AcDbDictionaryWithDefault
340
F
  0
DICTIONARY
  5
2F2
102
{ACAD_REACTORS
330
C
102
}
330
C
100
AcDbDictionary
281
     1
  3
A0
350
2F3
  3
A1
350
2F4
  3
A2
350
2F5
  3
A3
350
2F6
  3
A4
350
2F7
  3
A5
350
2F8
  3
A6
350
2F9
  3
A7
350
2FA
  3
A8
350
2FB
  3
A9
350
2FC
  3
B0
350
2FD
  3
B1
350
2FE
  3
B2
350
2FF
  3
B3
350
300
  3
B4
350
301
  3
B5
350
302
  3
B6
350
303
  3
B7
350
304
  3
B8
350
305
  3
B9
350
306
  3
C0
350
307
  3
C1
350
308
  3
C2
350
309
  3
C3
350
30A
  3
C4
350
30B
  3
C5
350
30C
  3
C6
350
30D
  3
C7
350
30E
  3
C8
350
30F
  3
C9
350
310
  3
D0
350
311
  3
D1
350
312
  3
D2
350
313
  0
DICTIONARY
  5
2F0
102
{ACAD_REACTORS
330
C
102
}
330
C
100
AcDbDictionary
281
     1
  3
Standard
350
2F1
  0
DICTIONARY
  5
2DE
102
{ACAD_REACTORS
330
C
102
}
330
C
100
AcDbDictionary
281
     1
  3
2dWireframe
350
2E4
  3
3D Hidden
350
2E6
  3
3dWireframe
350
2E5
  3
Basic
350
2E3
  3
Brighten
350
2EA
  3
ColorChange
350
2EE
  3
Conceptual
350
2E7
  3
Dim
350
2E9
  3
Facepattern
350
2ED
  3
Flat
350
2DF
  3
FlatWithEdges
350
2E0
  3
Gouraud
350
2E1
  3
GouraudWithEdges
350
2E2
  3
Linepattern
350
2EC
  3
Realistic
350
2E8
  3
Thicken
350
2EB
  0
XRECORD
  5
319
102
{ACAD_REACTORS
330
C
102
}
330
C
100
AcDbXrecord
280
     1
 90
        1
330
2F1
  0
DICTIONARY
  5
54E
102
{ACAD_REACTORS
330
C
102
}
330
C
100
AcDbDictionary
281
     1
  0
DICTIONARY
  5
360
102
{ACAD_REACTORS
330
C
102
}
330
C
100
AcDbDictionary
281
     1
  3
CANNOSCALE
350
363
  3
CMLEADERSTYLE
350
362
  3
CTABLESTYLE
350
361
  3
DIMASSOC
350
366
  3
INDEXCTL
350
365
  3
PROJECTNAME
350
54B
  3
SORTENTS
350
364
  0
XRECORD
  5
54D
102
{ACAD_REACTORS
330
C
102
}
330
C
100
AcDbXrecord
280
     1
  1
DWGPROPS COOKIE
  2

  3

  4

  6

  7

  8
Administrator
  9

300
=
301
=
302
=
303
=
304
=
305
=
306
=
307
=
308
=
309
=
 40
0.0074607291666667
 41
2458383.648856539
 42
2458383.656827627
  1

 90
        0
  0
XRECORD
  5
31B
102
{ACAD_REACTORS
330
31A
102
}
330
31A
100
AcDbXrecord
280
     1
102
VTR_0.000_0.000_1.000_1.000_VISUALSTYLE
340
2E4
102
VTR_0.000_0.000_1.000_1.000_GRIDDISPLAY
 70
     3
102
VTR_0.000_0.000_1.000_1.000_GRIDMAJOR
 70
     5
102
VTR_0.000_0.000_1.000_1.000_DEFAULTLIGHTING
280
     1
102
VTR_0.000_0.000_1.000_1.000_DEFAULTLIGHTINGTYPE
 70
     1
102
VTR_0.000_0.000_1.000_1.000_BRIGHTNESS
141
0.0
102
VTR_0.000_0.000_1.000_1.000_CONTRAST
142
0.0
  0
DICTIONARY
  5
54A
102
{ACAD_REACTORS
330
548
102
}
330
548
100
AcDbDictionary
281
     1
  0
DICTIONARY
  5
549
102
{ACAD_REACTORS
330
548
102
}
330
548
100
AcDbDictionary
281
     1
1001
ACAD
1000
<All
  0
SORTENTSTABLE
  5
372
102
{ACAD_REACTORS
330
371
102
}
330
371
100
AcDbSortentsTable
330
219
331
2BC
  5
2BD
331
2A2
  5
2A2
331
280
  5
280
331
24D
  5
24D
331
2B3
  5
2B3
331
291
  5
291
331
26F
  5
26F
331
235
  5
235
331
36F
  5
370
331
25E
  5
25E
331
224
  5
224
331
2BA
  5
2BB
331
2A0
  5
2A0
331
24B
  5
24B
331
2B1
  5
2B1
331
28F
  5
28F
331
26D
  5
26D
331
233
  5
233
331
36D
  5
36E
331
27E
  5
27E
331
25C
  5
25C
331
222
  5
222
331
2B8
  5
2B9
331
249
  5
249
331
2AF
  5
2AF
331
28D
  5
28D
331
26B
  5
26B
331
231
  5
231
331
29E
  5
29E
331
27C
  5
27C
331
25A
  5
25A
331
220
  5
220
331
247
  5
247
331
2AD
  5
2AD
331
28B
  5
28B
331
269
  5
269
331
22F
  5
22F
331
29C
  5
29C
331
27A
  5
27A
331
258
  5
258
331
21E
  5
21E
331
245
  5
245
331
2AB
  5
2AB
331
289
  5
289
331
267
  5
267
331
22D
  5
22D
331
256
  5
256
331
29A
  5
29A
331
278
  5
278
331
23E
  5
23E
331
21C
  5
21C
331
243
  5
243
331
2A9
  5
2A9
331
287
  5
287
331
265
  5
265
331
254
  5
254
331
298
  5
298
331
276
  5
276
331
23C
  5
23C
331
22B
  5
22B
331
241
  5
241
331
2A7
  5
2A7
331
285
  5
285
331
263
  5
263
331
252
  5
252
331
296
  5
296
331
274
  5
274
331
23A
  5
23A
331
229
  5
229
331
2BF
  5
2C0
331
2A5
  5
2A5
331
283
  5
283
331
261
  5
261
331
250
  5
250
331
2B6
  5
2B7
331
294
  5
294
331
272
  5
272
331
238
  5
238
331
227
  5
227
331
370
  5
2B4
331
2BD
  5
2BE
331
2A3
  5
2A3
331
281
  5
281
331
24E
  5
24E
331
2B4
  5
2B5
331
292
  5
292
331
270
  5
270
331
236
  5
236
331
25F
  5
25F
331
225
  5
225
331
2BB
  5
2BC
331
2A1
  5
2A1
331
24C
  5
24C
331
2B2
  5
2B2
331
290
  5
290
331
26E
  5
26E
331
234
  5
234
331
36E
  5
36F
331
27F
  5
27F
331
25D
  5
25D
331
223
  5
223
331
2B9
  5
2BA
331
24A
  5
24A
331
2B0
  5
2B0
331
28E
  5
28E
331
26C
  5
26C
331
232
  5
232
331
36C
  5
36D
331
29F
  5
29F
331
27D
  5
27D
331
25B
  5
25B
331
221
  5
221
331
248
  5
248
331
2AE
  5
2AE
331
28C
  5
28C
331
26A
  5
26A
331
230
  5
230
331
29D
  5
29D
331
27B
  5
27B
331
259
  5
259
331
21F
  5
21F
331
246
  5
246
331
2AC
  5
2AC
331
28A
  5
28A
331
268
  5
268
331
22E
  5
22E
331
257
  5
257
331
29B
  5
29B
331
279
  5
279
331
23F
  5
23F
331
21D
  5
21D
331
244
  5
244
331
2AA
  5
2AA
331
288
  5
288
331
266
  5
266
331
255
  5
255
331
299
  5
299
331
277
  5
277
331
23D
  5
23D
331
22C
  5
22C
331
242
  5
242
331
2A8
  5
2A8
331
286
  5
286
331
264
  5
264
331
253
  5
253
331
297
  5
297
331
275
  5
275
331
23B
  5
23B
331
22A
  5
22A
331
240
  5
240
331
2C0
  5
36C
331
2A6
  5
2A6
331
284
  5
284
331
262
  5
262
331
251
  5
251
331
2B7
  5
2B8
331
295
  5
295
331
273
  5
273
331
239
  5
239
331
228
  5
228
331
2BE
  5
2BF
331
2A4
  5
2A4
331
282
  5
282
331
260
  5
260
331
24F
  5
24F
331
2B5
  5
2B6
331
293
  5
293
331
271
  5
271
331
237
  5
237
331
226
  5
226
  0
LAYOUT
  5
2C2
102
{ACAD_XDICTIONARY
360
551
102
}
102
{ACAD_REACTORS
330
1A
102
}
330
1A
100
AcDbPlotSettings
  1

  2
none_device
  4
ISO_A4_(297.00_x_210.00_MM)
  6

 40
0.0
 41
0.0
 42
0.0
 43
0.0
 44
297.0
 45
210.0
 46
0.0
 47
0.0
 48
0.0
 49
0.0
140
0.0
141
0.0
142
1.0
143
1.0
 70
     0
 72
     1
 73
     0
 74
     0
  7

 75
     0
147
1.0
148
0.0
149
0.0
100
AcDbLayout
  1
Layout1
 70
     1
 71
     1
 10
0.0
 20
0.0
 11
12.0
 21
9.0
 12
0.0
 22
0.0
 32
0.0
 14
1.000000000000000E+20
 24
1.000000000000000E+20
 34
1.000000000000000E+20
 15
-1.000000000000000E+20
 25
-1.000000000000000E+20
 35
-1.000000000000000E+20
146
0.0
 13
0.0
 23
0.0
 33
0.0
 16
1.0
 26
0.0
 36
0.0
 17
0.0
 27
1.0
 37
0.0
 76
     0
330
21A
  0
LAYOUT
  5
2C1
102
{ACAD_XDICTIONARY
360
54F
102
}
102
{ACAD_REACTORS
330
1A
102
}
330
1A
100
AcDbPlotSettings
  1

  2
none_device
  4
ISO_A4_(297.00_x_210.00_MM)
  6

 40
0.0
 41
0.0
 42
0.0
 43
0.0
 44
297.0
 45
210.0
 46
0.0
 47
0.0
 48
0.0
 49
0.0
140
0.0
141
0.0
142
1.0
143
1.0
 70
  1024
 72
     1
 73
     0
 74
     0
  7

 75
     0
147
1.0
148
0.0
149
0.0
100
AcDbLayout
  1
Model
 70
     0
 71
     0
 10
0.0
 20
0.0
 11
297.0
 21
210.0
 12
0.0
 22
0.0
 32
0.0
 14
0.0
 24
0.0
 34
0.0
 15
0.0
 25
0.0
 35
0.0
146
0.0
 13
0.0
 23
0.0
 33
0.0
 16
1.0
 26
0.0
 36
0.0
 17
0.0
 27
1.0
 37
0.0
 76
     0
330
219
  0
MATERIAL
  5
2CE
102
{ACAD_XDICTIONARY
360
2CF
102
}
102
{ACAD_REACTORS
330
2C5
102
}
330
2C5
100
AcDbMaterial
  1
ByBlock
  2

 72
     0
 73
     2
 43
0.0008202099737533
 43
0.0
 43
0.0
 43
0.0
 43
0.0
 43
0.0008202099737533
 43
0.0
 43
0.0
 43
0.0
 43
0.0
 43
1.0
 43
0.0
 43
0.0
 43
0.0
 43
0.0
 43
1.0
 77
     0
 78
     2
 47
0.0008202099737533
 47
0.0
 47
0.0
 47
0.0
 47
0.0
 47
0.0008202099737533
 47
0.0
 47
0.0
 47
0.0
 47
0.0
 47
1.0
 47
0.0
 47
0.0
 47
0.0
 47
0.0
 47
1.0
171
     0
172
     2
 49
0.0008202099737533
 49
0.0
 49
0.0
 49
0.0
 49
0.0
 49
0.0008202099737533
 49
0.0
 49
0.0
 49
0.0
 49
0.0
 49
1.0
 49
0.0
 49
0.0
 49
0.0
 49
0.0
 49
1.0
175
     0
176
     2
142
0.0008202099737533
142
0.0
142
0.0
142
0.0
142
0.0
142
0.0008202099737533
142
0.0
142
0.0
142
0.0
142
0.0
142
1.0
142
0.0
142
0.0
142
0.0
142
0.0
142
1.0
179
     0
270
     2
144
0.0008202099737533
144
0.0
144
0.0
144
0.0
144
0.0
144
0.0008202099737533
144
0.0
144
0.0
144
0.0
144
0.0
144
1.0
144
0.0
144
0.0
144
0.0
144
0.0
144
1.0
274
     2
147
0.0008202099737533
147
0.0
147
0.0
147
0.0
147
0.0
147
0.0008202099737533
147
0.0
147
0.0
147
0.0
147
0.0
147
1.0
147
0.0
147
0.0
147
0.0
147
0.0
147
1.0
  0
MATERIAL
  5
2C6
102
{ACAD_XDICTIONARY
360
2C7
102
}
102
{ACAD_REACTORS
330
2C5
102
}
330
2C5
100
AcDbMaterial
  1
ByLayer
  2

 72
     0
 73
     2
 43
0.0008202099737533
 43
0.0
 43
0.0
 43
0.0
 43
0.0
 43
0.0008202099737533
 43
0.0
 43
0.0
 43
0.0
 43
0.0
 43
1.0
 43
0.0
 43
0.0
 43
0.0
 43
0.0
 43
1.0
 77
     0
 78
     2
 47
0.0008202099737533
 47
0.0
 47
0.0
 47
0.0
 47
0.0
 47
0.0008202099737533
 47
0.0
 47
0.0
 47
0.0
 47
0.0
 47
1.0
 47
0.0
 47
0.0
 47
0.0
 47
0.0
 47
1.0
171
     0
172
     2
 49
0.0008202099737533
 49
0.0
 49
0.0
 49
0.0
 49
0.0
 49
0.0008202099737533
 49
0.0
 49
0.0
 49
0.0
 49
0.0
 49
1.0
 49
0.0
 49
0.0
 49
0.0
 49
0.0
 49
1.0
175
     0
176
     2
142
0.0008202099737533
142
0.0
142
0.0
142
0.0
142
0.0
142
0.0008202099737533
142
0.0
142
0.0
142
0.0
142
0.0
142
1.0
142
0.0
142
0.0
142
0.0
142
0.0
142
1.0
179
     0
270
     2
144
0.0008202099737533
144
0.0
144
0.0
144
0.0
144
0.0
144
0.0008202099737533
144
0.0
144
0.0
144
0.0
144
0.0
144
1.0
144
0.0
144
0.0
144
0.0
144
0.0
144
1.0
274
     2
147
0.0008202099737533
147
0.0
147
0.0
147
0.0
147
0.0
147
0.0008202099737533
147
0.0
147
0.0
147
0.0
147
0.0
147
1.0
147
0.0
147
0.0
147
0.0
147
0.0
147
1.0
  0
MATERIAL
  5
2D6
102
{ACAD_XDICTIONARY
360
2D7
102
}
102
{ACAD_REACTORS
330
2C5
102
}
330
2C5
100
AcDbMaterial
  1
Global
  2

 72
     0
 73
     2
 43
0.0008202099737533
 43
0.0
 43
0.0
 43
0.0
 43
0.0
 43
0.0008202099737533
 43
0.0
 43
0.0
 43
0.0
 43
0.0
 43
1.0
 43
0.0
 43
0.0
 43
0.0
 43
0.0
 43
1.0
 77
     0
 78
     2
 47
0.0008202099737533
 47
0.0
 47
0.0
 47
0.0
 47
0.0
 47
0.0008202099737533
 47
0.0
 47
0.0
 47
0.0
 47
0.0
 47
1.0
 47
0.0
 47
0.0
 47
0.0
 47
0.0
 47
1.0
171
     0
172
     2
 49
0.0008202099737533
 49
0.0
 49
0.0
 49
0.0
 49
0.0
 49
0.0008202099737533
 49
0.0
 49
0.0
 49
0.0
 49
0.0
 49
1.0
 49
0.0
 49
0.0
 49
0.0
 49
0.0
 49
1.0
175
     0
176
     2
142
0.0008202099737533
142
0.0
142
0.0
142
0.0
142
0.0
142
0.0008202099737533
142
0.0
142
0.0
142
0.0
142
0.0
142
1.0
142
0.0
142
0.0
142
0.0
142
0.0
142
1.0
179
     0
270
     2
144
0.0008202099737533
144
0.0
144
0.0
144
0.0
144
0.0
144
0.0008202099737533
144
0.0
144
0.0
144
0.0
144
0.0
144
1.0
144
0.0
144
0.0
144
0.0
144
0.0
144
1.0
274
     2
147
0.0008202099737533
147
0.0
147
0.0
147
0.0
147
0.0
147
0.0008202099737533
147
0.0
147
0.0
147
0.0
147
0.0
147
1.0
147
0.0
147
0.0
147
0.0
147
0.0
147
1.0
  0
MLEADERSTYLE
  5
315
102
{ACAD_REACTORS
330
314
102
}
330
314
100
AcDbMLeaderStyle
170
     2
171
     1
172
     0
 90
        2
 40
0.0
 41
0.0
173
     1
 91
-1056964608
340
14
 92
       -2
290
     1
 42
2.0
291
     1
 43
0.36
  3
Standard
341
0
 44
4.0
300

342
11
174
     1
178
     6
175
     1
176
     0
 93
-1056964608
 45
4.0
292
     0
297
     0
 46
4.0
343
0
 94
-1056964608
 47
1.0
 49
1.0
140
1.0
293
     1
141
0.0
294
     1
177
     0
142
1.0
295
     0
296
     0
143
0.125
1001
ACAD_MLEADERVER
1070
     2
  0
MLINESTYLE
  5
18
102
{ACAD_REACTORS
330
17
102
}
330
17
100
AcDbMlineStyle
  2
STANDARD
 70
     0
  3

 62
   256
 51
90.0
 52
90.0
 71
     2
 49
0.5
 62
   256
  6
BYLAYER
 49
-0.5
 62
   256
  6
BYLAYER
  0
ACDBPLACEHOLDER
  5
F
102
{ACAD_REACTORS
330
E
102
}
330
E
  0
SCALE
  5
2F3
102
{ACAD_REACTORS
330
2F2
102
}
330
2F2
100
AcDbScale
 70
     0
300
1:1
140
1.0
141
1.0
290
     1
  0
SCALE
  5
2F4
102
{ACAD_REACTORS
330
2F2
102
}
330
2F2
100
AcDbScale
 70
     0
300
1:2
140
1.0
141
2.0
290
     0
  0
SCALE
  5
2F5
102
{ACAD_REACTORS
330
2F2
102
}
330
2F2
100
AcDbScale
 70
     0
300
1:4
140
1.0
141
4.0
290
     0
  0
SCALE
  5
2F6
102
{ACAD_REACTORS
330
2F2
102
}
330
2F2
100
AcDbScale
 70
     0
300
1:5
140
1.0
141
5.0
290
     0
  0
SCALE
  5
2F7
102
{ACAD_REACTORS
330
2F2
102
}
330
2F2
100
AcDbScale
 70
     0
300
1:8
140
1.0
141
8.0
290
     0
  0
SCALE
  5
2F8
102
{ACAD_REACTORS
330
2F2
102
}
330
2F2
100
AcDbScale
 70
     0
300
1:10
140
1.0
141
10.0
290
     0
  0
SCALE
  5
2F9
102
{ACAD_REACTORS
330
2F2
102
}
330
2F2
100
AcDbScale
 70
     0
300
1:16
140
1.0
141
16.0
290
     0
  0
SCALE
  5
2FA
102
{ACAD_REACTORS
330
2F2
102
}
330
2F2
100
AcDbScale
 70
     0
300
1:20
140
1.0
141
20.0
290
     0
  0
SCALE
  5
2FB
102
{ACAD_REACTORS
330
2F2
102
}
330
2F2
100
AcDbScale
 70
     0
300
1:30
140
1.0
141
30.0
290
     0
  0
SCALE
  5
2FC
102
{ACAD_REACTORS
330
2F2
102
}
330
2F2
100
AcDbScale
 70
     0
300
1:40
140
1.0
141
40.0
290
     0
  0
SCALE
  5
2FD
102
{ACAD_REACTORS
330
2F2
102
}
330
2F2
100
AcDbScale
 70
     0
300
1:50
140
1.0
141
50.0
290
     0
  0
SCALE
  5
2FE
102
{ACAD_REACTORS
330
2F2
102
}
330
2F2
100
AcDbScale
 70
     0
300
1:100
140
1.0
141
100.0
290
     0
  0
SCALE
  5
2FF
102
{ACAD_REACTORS
330
2F2
102
}
330
2F2
100
AcDbScale
 70
     0
300
2:1
140
2.0
141
1.0
290
     0
  0
SCALE
  5
300
102
{ACAD_REACTORS
330
2F2
102
}
330
2F2
100
AcDbScale
 70
     0
300
4:1
140
4.0
141
1.0
290
     0
  0
SCALE
  5
301
102
{ACAD_REACTORS
330
2F2
102
}
330
2F2
100
AcDbScale
 70
     0
300
8:1
140
8.0
141
1.0
290
     0
  0
SCALE
  5
302
102
{ACAD_REACTORS
330
2F2
102
}
330
2F2
100
AcDbScale
 70
     0
300
10:1
140
10.0
141
1.0
290
     0
  0
SCALE
  5
303
102
{ACAD_REACTORS
330
2F2
102
}
330
2F2
100
AcDbScale
 70
     0
300
100:1
140
100.0
141
1.0
290
     0
  0
SCALE
  5
304
102
{ACAD_REACTORS
330
2F2
102
}
330
2F2
100
AcDbScale
 70
     0
300
1/128" = 1'-0"
140
0.0078125
141
12.0
290
     0
  0
SCALE
  5
305
102
{ACAD_REACTORS
330
2F2
102
}
330
2F2
100
AcDbScale
 70
     0
300
1/64" = 1'-0"
140
0.015625
141
12.0
290
     0
  0
SCALE
  5
306
102
{ACAD_REACTORS
330
2F2
102
}
330
2F2
100
AcDbScale
 70
     0
300
1/32" = 1'-0"
140
0.03125
141
12.0
290
     0
  0
SCALE
  5
307
102
{ACAD_REACTORS
330
2F2
102
}
330
2F2
100
AcDbScale
 70
     0
300
1/16" = 1'-0"
140
0.0625
141
12.0
290
     0
  0
SCALE
  5
308
102
{ACAD_REACTORS
330
2F2
102
}
330
2F2
100
AcDbScale
 70
     0
300
3/32" = 1'-0"
140
0.09375
141
12.0
290
     0
  0
SCALE
  5
309
102
{ACAD_REACTORS
330
2F2
102
}
330
2F2
100
AcDbScale
 70
     0
300
1/8" = 1'-0"
140
0.125
141
12.0
290
     0
  0
SCALE
  5
30A
102
{ACAD_REACTORS
330
2F2
102
}
330
2F2
100
AcDbScale
 70
     0
300
3/16" = 1'-0"
140
0.1875
141
12.0
290
     0
  0
SCALE
  5
30B
102
{ACAD_REACTORS
330
2F2
102
}
330
2F2
100
AcDbScale
 70
     0
300
1/4" = 1'-0"
140
0.25
141
12.0
290
     0
  0
SCALE
  5
30C
102
{ACAD_REACTORS
330
2F2
102
}
330
2F2
100
AcDbScale
 70
     0
300
3/8" = 1'-0"
140
0.375
141
12.0
290
     0
  0
SCALE
  5
30D
102
{ACAD_REACTORS
330
2F2
102
}
330
2F2
100
AcDbScale
 70
     0
300
1/2" = 1'-0"
140
0.5
141
12.0
290
     0
  0
SCALE
  5
30E
102
{ACAD_REACTORS
330
2F2
102
}
330
2F2
100
AcDbScale
 70
     0
300
3/4" = 1'-0"
140
0.75
141
12.0
290
     0
  0
SCALE
  5
30F
102
{ACAD_REACTORS
330
2F2
102
}
330
2F2
100
AcDbScale
 70
     0
300
1" = 1'-0"
140
1.0
141
12.0
290
     0
  0
SCALE
  5
310
102
{ACAD_REACTORS
330
2F2
102
}
330
2F2
100
AcDbScale
 70
     0
300
1-1/2" = 1'-0"
140
1.5
141
12.0
290
     0
  0
SCALE
  5
311
102
{ACAD_REACTORS
330
2F2
102
}
330
2F2
100
AcDbScale
 70
     0
300
3" = 1'-0"
140
3.0
141
12.0
290
     0
  0
SCALE
  5
312
102
{ACAD_REACTORS
330
2F2
102
}
330
2F2
100
AcDbScale
 70
     0
300
6" = 1'-0"
140
6.0
141
12.0
290
     0
  0
SCALE
  5
313
102
{ACAD_REACTORS
330
2F2
102
}
330
2F2
100
AcDbScale
 70
     0
300
1'-0" = 1'-0"
140
12.0
141
12.0
290
     0
  0
TABLESTYLE
  5
2F1
102
{ACAD_XDICTIONARY
360
317
102
}
102
{ACAD_REACTORS
330
2F0
102
}
330
2F0
100
AcDbTableStyle
  3
Standard
 70
     0
 71
     0
 40
1.5
 41
1.5
280
     0
281
     0
  7
STANDARD
140
4.5
170
     2
 62
     0
 63
   257
283
     1
274
    -2
284
     1
 64
     0
275
    -2
285
     1
 65
     0
276
    -2
286
     1
 66
     0
277
    -2
287
     1
 67
     0
278
    -2
288
     1
 68
     0
279
    -2
289
     1
 69
     0
  7
STANDARD
140
6.0
170
     5
 62
     0
 63
   257
283
     1
274
    -2
284
     1
 64
     0
275
    -2
285
     1
 65
     0
276
    -2
286
     1
 66
     0
277
    -2
287
     1
 67
     0
278
    -2
288
     1
 68
     0
279
    -2
289
     1
 69
     0
  7
STANDARD
140
4.5
170
     5
 62
     0
 63
   257
283
     1
274
    -2
284
     1
 64
     0
275
    -2
285
     1
 65
     0
276
    -2
286
     1
 66
     0
277
    -2
287
     1
 67
     0
278
    -2
288
     1
 68
     0
279
    -2
289
     1
 69
     0
  0
VISUALSTYLE
  5
2E4
102
{ACAD_XDICTIONARY
360
55D
102
}
102
{ACAD_REACTORS
330
2DE
102
}
330
2DE
100
AcDbVisualStyle
  2
2dWireframe
 70
     4
 71
     0
 72
     2
 73
     0
 90
        0
 40
-0.6
 41
-30.0
 74
     1
 91
        4
 75
     1
175
     1
 42
1.0
 92
        0
 43
1.0
 76
     1
 77
     6
 78
     2
 79
     5
170
     0
171
     0
290
     0
174
     0
 93
        1
 44
0.0
173
     0
291
     0
 45
0.0
1001
ACAD
1000
AcDbSavedByObjectVersion
1070
     0
  0
VISUALSTYLE
  5
2E6
102
{ACAD_XDICTIONARY
360
561
102
}
102
{ACAD_REACTORS
330
2DE
102
}
330
2DE
100
AcDbVisualStyle
  2
3D Hidden
 70
     6
 71
     1
 72
     2
 73
     2
 90
        0
 40
-0.6
 41
-30.0
 74
     2
 91
        2
 75
     2
175
     1
 42
40.0
 92
        0
 43
1.0
 76
     1
 77
     6
 78
     2
 79
     3
170
     0
171
     0
290
     0
174
     0
 93
        1
 44
0.0
173
     0
291
     0
 45
0.0
1001
ACAD
1000
AcDbSavedByObjectVersion
1070
     0
  0
VISUALSTYLE
  5
2E5
102
{ACAD_XDICTIONARY
360
55F
102
}
102
{ACAD_REACTORS
330
2DE
102
}
330
2DE
100
AcDbVisualStyle
  2
3dWireframe
 70
     5
 71
     0
 72
     2
 73
     0
 90
        0
 40
-0.6
 41
-30.0
 74
     1
 91
        4
 75
     1
175
     1
 42
1.0
 92
        0
 43
1.0
 76
     1
 77
     6
 78
     2
 79
     5
170
     0
171
     0
290
     0
174
     0
 93
        1
 44
0.0
173
     0
291
     0
 45
0.0
1001
ACAD
1000
AcDbSavedByObjectVersion
1070
     0
  0
VISUALSTYLE
  5
2E3
102
{ACAD_XDICTIONARY
360
55B
102
}
102
{ACAD_REACTORS
330
2DE
102
}
330
2DE
100
AcDbVisualStyle
  2
Basic
 70
     7
 71
     1
 72
     0
 73
     1
 90
        0
 40
-0.6
 41
-30.0
 74
     0
 91
        4
 75
     1
175
     1
 42
1.0
 92
        8
 43
1.0
 76
     1
 77
     6
 78
     2
 79
     5
170
     0
171
     0
290
     0
174
     0
 93
        1
 44
0.0
173
     0
291
     1
 45
0.0
1001
ACAD
1000
AcDbSavedByObjectVersion
1070
     0
  0
VISUALSTYLE
  5
2EA
102
{ACAD_XDICTIONARY
360
569
102
}
102
{ACAD_REACTORS
330
2DE
102
}
330
2DE
100
AcDbVisualStyle
  2
Brighten
 70
    12
 71
     2
 72
     2
 73
     0
 90
        0
 40
-0.6
 41
-30.0
 74
     1
 91
        4
 75
     1
175
     1
 42
1.0
 92
        8
 43
1.0
 76
     1
 77
     6
 78
     2
 79
     5
170
     0
171
     0
290
     0
174
     0
 93
        1
 44
50.0
173
     0
291
     1
 45
0.0
1001
ACAD
1000
AcDbSavedByObjectVersion
1070
     0
  0
VISUALSTYLE
  5
2EE
102
{ACAD_XDICTIONARY
360
571
102
}
102
{ACAD_REACTORS
330
2DE
102
}
330
2DE
100
AcDbVisualStyle
  2
ColorChange
 70
    16
 71
     2
 72
     2
 73
     3
 90
        0
 40
-0.6
 41
-30.0
 74
     1
 91
        4
 75
     1
175
     1
 42
1.0
 92
        8
 43
1.0
 76
     1
 77
     6
 78
     2
 79
     5
170
     0
171
     0
290
     0
174
     0
 93
        1
 44
0.0
173
     0
291
     1
 45
0.0
1001
ACAD
1000
AcDbSavedByObjectVersion
1070
     0
  0
VISUALSTYLE
  5
2E7
102
{ACAD_XDICTIONARY
360
563
102
}
102
{ACAD_REACTORS
330
2DE
102
}
330
2DE
100
AcDbVisualStyle
  2
Conceptual
 70
     9
 71
     3
 72
     2
 73
     0
 90
        0
 40
-0.6
 41
-30.0
 74
     2
 91
        2
 75
     1
175
     1
 42
40.0
 92
        8
 43
1.0
 76
     1
 77
     6
 78
     2
 79
     3
170
     0
171
     0
290
     0
174
     0
 93
        1
 44
0.0
173
     0
291
     0
 45
0.0
1001
ACAD
1000
AcDbSavedByObjectVersion
1070
     0
  0
VISUALSTYLE
  5
2E9
102
{ACAD_XDICTIONARY
360
567
102
}
102
{ACAD_REACTORS
330
2DE
102
}
330
2DE
100
AcDbVisualStyle
  2
Dim
 70
    11
 71
     2
 72
     2
 73
     0
 90
        0
 40
-0.6
 41
-30.0
 74
     1
 91
        4
 75
     1
175
     1
 42
1.0
 92
        8
 43
1.0
 76
     1
 77
     6
 78
     2
 79
     5
170
     0
171
     0
290
     0
174
     0
 93
        1
 44
-50.0
173
     0
291
     1
 45
0.0
1001
ACAD
1000
AcDbSavedByObjectVersion
1070
     0
  0
VISUALSTYLE
  5
2ED
102
{ACAD_XDICTIONARY
360
56F
102
}
102
{ACAD_REACTORS
330
2DE
102
}
330
2DE
100
AcDbVisualStyle
  2
Facepattern
 70
    15
 71
     2
 72
     2
 73
     0
 90
        0
 40
-0.6
 41
-30.0
 74
     1
 91
        4
 75
     1
175
     1
 42
1.0
 92
        8
 43
1.0
 76
     1
 77
     6
 78
     2
 79
     5
170
     0
171
     0
290
     0
174
     0
 93
        1
 44
0.0
173
     0
291
     1
 45
0.0
1001
ACAD
1000
AcDbSavedByObjectVersion
1070
     0
  0
VISUALSTYLE
  5
2DF
102
{ACAD_XDICTIONARY
360
553
102
}
102
{ACAD_REACTORS
330
2DE
102
}
330
2DE
100
AcDbVisualStyle
  2
Flat
 70
     0
 71
     2
 72
     1
 73
     1
 90
        2
 40
-0.6
 41
30.0
 74
     0
 91
        4
 75
     1
175
     1
 42
1.0
 92
        8
 43
1.0
 76
     1
 77
     6
 78
     2
 79
     5
170
     0
171
     0
290
     0
174
     0
 93
       13
 44
0.0
173
     0
291
     1
 45
0.0
1001
ACAD
1000
AcDbSavedByObjectVersion
1070
     0
  0
VISUALSTYLE
  5
2E0
102
{ACAD_XDICTIONARY
360
555
102
}
102
{ACAD_REACTORS
330
2DE
102
}
330
2DE
100
AcDbVisualStyle
  2
FlatWithEdges
 70
     1
 71
     2
 72
     1
 73
     1
 90
        2
 40
-0.6
 41
30.0
 74
     1
 91
        4
 75
     1
175
     1
 42
1.0
 92
        0
 43
1.0
 76
     1
 77
     6
 78
     2
 79
     5
170
     0
171
     0
290
     0
174
     0
 93
       13
 44
0.0
173
     0
291
     1
 45
0.0
1001
ACAD
1000
AcDbSavedByObjectVersion
1070
     0
  0
VISUALSTYLE
  5
2E1
102
{ACAD_XDICTIONARY
360
557
102
}
102
{ACAD_REACTORS
330
2DE
102
}
330
2DE
100
AcDbVisualStyle
  2
Gouraud
 70
     2
 71
     2
 72
     2
 73
     1
 90
        2
 40
-0.6
 41
30.0
 74
     0
 91
        4
 75
     1
175
     1
 42
1.0
 92
        0
 43
1.0
 76
     1
 77
     6
 78
     2
 79
     5
170
     0
171
     0
290
     0
174
     0
 93
       13
 44
0.0
173
     0
291
     1
 45
0.0
1001
ACAD
1000
AcDbSavedByObjectVersion
1070
     0
  0
VISUALSTYLE
  5
2E2
102
{ACAD_XDICTIONARY
360
559
102
}
102
{ACAD_REACTORS
330
2DE
102
}
330
2DE
100
AcDbVisualStyle
  2
GouraudWithEdges
 70
     3
 71
     2
 72
     2
 73
     1
 90
        2
 40
-0.6
 41
30.0
 74
     1
 91
        4
 75
     1
175
     1
 42
1.0
 92
        0
 43
1.0
 76
     1
 77
     6
 78
     2
 79
     5
170
     0
171
     0
290
     0
174
     0
 93
       13
 44
0.0
173
     0
291
     1
 45
0.0
1001
ACAD
1000
AcDbSavedByObjectVersion
1070
     0
  0
VISUALSTYLE
  5
2EC
102
{ACAD_XDICTIONARY
360
56D
102
}
102
{ACAD_REACTORS
330
2DE
102
}
330
2DE
100
AcDbVisualStyle
  2
Linepattern
 70
    14
 71
     2
 72
     2
 73
     0
 90
        0
 40
-0.6
 41
-30.0
 74
     1
 91
        4
 75
     7
175
     7
 42
1.0
 92
        8
 43
1.0
 76
     1
 77
     6
 78
     2
 79
     5
170
     0
171
     0
290
     0
174
     0
 93
        1
 44
0.0
173
     0
291
     1
 45
0.0
1001
ACAD
1000
AcDbSavedByObjectVersion
1070
     0
  0
VISUALSTYLE
  5
2E8
102
{ACAD_XDICTIONARY
360
565
102
}
102
{ACAD_REACTORS
330
2DE
102
}
330
2DE
100
AcDbVisualStyle
  2
Realistic
 70
     8
 71
     2
 72
     2
 73
     0
 90
        0
 40
-0.6
 41
-30.0
 74
     1
 91
        0
 75
     1
175
     1
 42
1.0
 92
        8
 43
1.0
 76
     1
 77
     6
 78
     2
 79
     5
170
     0
171
     0
290
     0
174
     0
 93
       13
 44
0.0
173
     0
291
     0
 45
0.0
1001
ACAD
1000
AcDbSavedByObjectVersion
1070
     0
  0
VISUALSTYLE
  5
2EB
102
{ACAD_XDICTIONARY
360
56B
102
}
102
{ACAD_REACTORS
330
2DE
102
}
330
2DE
100
AcDbVisualStyle
  2
Thicken
 70
    13
 71
     2
 72
     2
 73
     0
 90
        0
 40
-0.6
 41
-30.0
 74
     1
 91
        4
 75
     1
175
     1
 42
1.0
 92
       12
 43
1.0
 76
     1
 77
     6
 78
     2
 79
     5
170
     0
171
     0
290
     0
174
     0
 93
        1
 44
0.0
173
     0
291
     1
 45
0.0
1001
ACAD
1000
AcDbSavedByObjectVersion
1070
     0
  0
DICTIONARYVAR
  5
363
102
{ACAD_REACTORS
330
360
102
}
330
360
100
DictionaryVariables
280
     0
  1
1:1
  0
DICTIONARYVAR
  5
362
102
{ACAD_REACTORS
330
360
102
}
330
360
100
DictionaryVariables
280
     0
  1
STANDARD
  0
DICTIONARYVAR
  5
361
102
{ACAD_REACTORS
330
360
102
}
330
360
100
DictionaryVariables
280
     0
  1
STANDARD
  0
DICTIONARYVAR
  5
366
102
{ACAD_REACTORS
330
360
102
}
330
360
100
DictionaryVariables
280
     0
  1
1
  0
DICTIONARYVAR
  5
365
102
{ACAD_REACTORS
330
360
102
}
330
360
100
DictionaryVariables
280
     0
  1
0
  0
DICTIONARYVAR
  5
54B
102
{ACAD_REACTORS
330
360
102
}
330
360
100
DictionaryVariables
280
     0
  1

  0
DICTIONARYVAR
  5
364
102
{ACAD_REACTORS
330
360
102
}
330
360
100
DictionaryVariables
280
     0
  1
127
  0
DICTIONARY
  5
551
330
2C2
100
AcDbDictionary
280
     1
281
     1
  3
ACAD_XREC_ROUNDTRIP
360
552
  0
DICTIONARY
  5
54F
330
2C1
100
AcDbDictionary
280
     1
281
     1
  3
ACAD_XREC_ROUNDTRIP
360
550
  0
DICTIONARY
  5
2CF
330
2CE
100
AcDbDictionary
280
     1
281
     1
  3
BUMPTILE
360
2D1
  3
DIFFUSETILE
360
2D0
  3
OPACITYTILE
360
2D4
  3
REFLECTIONTILE
360
2D3
  3
REFRACTIONTILE
360
2D5
  3
SPECULARTILE
360
2D2
  0
DICTIONARY
  5
2C7
330
2C6
100
AcDbDictionary
280
     1
281
     1
  3
BUMPTILE
360
2C9
  3
DIFFUSETILE
360
2C8
  3
OPACITYTILE
360
2CC
  3
REFLECTIONTILE
360
2CB
  3
REFRACTIONTILE
360
2CD
  3
SPECULARTILE
360
2CA
  0
DICTIONARY
  5
2D7
330
2D6
100
AcDbDictionary
280
     1
281
     1
  3
BUMPTILE
360
2D9
  3
DIFFUSETILE
360
2D8
  3
OPACITYTILE
360
2DC
  3
REFLECTIONTILE
360
2DB
  3
REFRACTIONTILE
360
2DD
  3
SPECULARTILE
360
2DA
  0
DICTIONARY
  5
317
330
2F1
100
AcDbDictionary
280
     1
281
     1
  0
DICTIONARY
  5
55D
330
2E4
100
AcDbDictionary
280
     1
281
     1
  3
ACAD_XREC_ROUNDTRIP
360
55E
  0
DICTIONARY
  5
561
330
2E6
100
AcDbDictionary
280
     1
281
     1
  3
ACAD_XREC_ROUNDTRIP
360
562
  0
DICTIONARY
  5
55F
330
2E5
100
AcDbDictionary
280
     1
281
     1
  3
ACAD_XREC_ROUNDTRIP
360
560
  0
DICTIONARY
  5
55B
330
2E3
100
AcDbDictionary
280
     1
281
     1
  3
ACAD_XREC_ROUNDTRIP
360
55C
  0
DICTIONARY
  5
569
330
2EA
100
AcDbDictionary
280
     1
281
     1
  3
ACAD_XREC_ROUNDTRIP
360
56A
  0
DICTIONARY
  5
571
330
2EE
100
AcDbDictionary
280
     1
281
     1
  3
ACAD_XREC_ROUNDTRIP
360
572
  0
DICTIONARY
  5
563
330
2E7
100
AcDbDictionary
280
     1
281
     1
  3
ACAD_XREC_ROUNDTRIP
360
564
  0
DICTIONARY
  5
567
330
2E9
100
AcDbDictionary
280
     1
281
     1
  3
ACAD_XREC_ROUNDTRIP
360
568
  0
DICTIONARY
  5
56F
330
2ED
100
AcDbDictionary
280
     1
281
     1
  3
ACAD_XREC_ROUNDTRIP
360
570
  0
DICTIONARY
  5
553
330
2DF
100
AcDbDictionary
280
     1
281
     1
  3
ACAD_XREC_ROUNDTRIP
360
554
  0
DICTIONARY
  5
555
330
2E0
100
AcDbDictionary
280
     1
281
     1
  3
ACAD_XREC_ROUNDTRIP
360
556
  0
DICTIONARY
  5
557
330
2E1
100
AcDbDictionary
280
     1
281
     1
  3
ACAD_XREC_ROUNDTRIP
360
558
  0
DICTIONARY
  5
559
330
2E2
100
AcDbDictionary
280
     1
281
     1
  3
ACAD_XREC_ROUNDTRIP
360
55A
  0
DICTIONARY
  5
56D
330
2EC
100
AcDbDictionary
280
     1
281
     1
  3
ACAD_XREC_ROUNDTRIP
360
56E
  0
DICTIONARY
  5
565
330
2E8
100
AcDbDictionary
280
     1
281
     1
  3
ACAD_XREC_ROUNDTRIP
360
566
  0
DICTIONARY
  5
56B
330
2EB
100
AcDbDictionary
280
     1
281
     1
  3
ACAD_XREC_ROUNDTRIP
360
56C
  0
XRECORD
  5
552
102
{ACAD_REACTORS
330
551
102
}
330
551
100
AcDbXrecord
280
     1
102
SHADEPLOT
 70
     0
102
SHADEPLOTRESLEVEL
 70
     2
102
SHADEPLOTCUSTOMDPI
 70
   300
  0
XRECORD
  5
550
102
{ACAD_REACTORS
330
54F
102
}
330
54F
100
AcDbXrecord
280
     1
102
SHADEPLOT
 70
     0
102
SHADEPLOTRESLEVEL
 70
     2
102
SHADEPLOTCUSTOMDPI
 70
   300
  0
XRECORD
  5
2D1
102
{ACAD_REACTORS
330
2CF
102
}
330
2CF
100
AcDbXrecord
280
     1
270
     1
271
     1
  0
XRECORD
  5
2D0
102
{ACAD_REACTORS
330
2CF
102
}
330
2CF
100
AcDbXrecord
280
     1
270
     1
271
     1
  0
XRECORD
  5
2D4
102
{ACAD_REACTORS
330
2CF
102
}
330
2CF
100
AcDbXrecord
280
     1
270
     1
271
     1
  0
XRECORD
  5
2D3
102
{ACAD_REACTORS
330
2CF
102
}
330
2CF
100
AcDbXrecord
280
     1
270
     1
271
     1
  0
XRECORD
  5
2D5
102
{ACAD_REACTORS
330
2CF
102
}
330
2CF
100
AcDbXrecord
280
     1
270
     1
271
     1
  0
XRECORD
  5
2D2
102
{ACAD_REACTORS
330
2CF
102
}
330
2CF
100
AcDbXrecord
280
     1
270
     1
271
     1
  0
XRECORD
  5
2C9
102
{ACAD_REACTORS
330
2C7
102
}
330
2C7
100
AcDbXrecord
280
     1
270
     1
271
     1
  0
XRECORD
  5
2C8
102
{ACAD_REACTORS
330
2C7
102
}
330
2C7
100
AcDbXrecord
280
     1
270
     1
271
     1
  0
XRECORD
  5
2CC
102
{ACAD_REACTORS
330
2C7
102
}
330
2C7
100
AcDbXrecord
280
     1
270
     1
271
     1
  0
XRECORD
  5
2CB
102
{ACAD_REACTORS
330
2C7
102
}
330
2C7
100
AcDbXrecord
280
     1
270
     1
271
     1
  0
XRECORD
  5
2CD
102
{ACAD_REACTORS
330
2C7
102
}
330
2C7
100
AcDbXrecord
280
     1
270
     1
271
     1
  0
XRECORD
  5
2CA
102
{ACAD_REACTORS
330
2C7
102
}
330
2C7
100
AcDbXrecord
280
     1
270
     1
271
     1
  0
XRECORD
  5
2D9
102
{ACAD_REACTORS
330
2D7
102
}
330
2D7
100
AcDbXrecord
280
     1
270
     1
271
     1
  0
XRECORD
  5
2D8
102
{ACAD_REACTORS
330
2D7
102
}
330
2D7
100
AcDbXrecord
280
     1
270
     1
271
     1
  0
XRECORD
  5
2DC
102
{ACAD_REACTORS
330
2D7
102
}
330
2D7
100
AcDbXrecord
280
     1
270
     1
271
     1
  0
XRECORD
  5
2DB
102
{ACAD_REACTORS
330
2D7
102
}
330
2D7
100
AcDbXrecord
280
     1
270
     1
271
     1
  0
XRECORD
  5
2DD
102
{ACAD_REACTORS
330
2D7
102
}
330
2D7
100
AcDbXrecord
280
     1
270
     1
271
     1
  0
XRECORD
  5
2DA
102
{ACAD_REACTORS
330
2D7
102
}
330
2D7
100
AcDbXrecord
280
     1
270
     1
271
     1
  0
XRECORD
  5
55E
102
{ACAD_REACTORS
330
55D
102
}
330
55D
100
AcDbXrecord
280
     1
102
RTVSPropertyOp0
 70
     1
102
RTVSPropertyOp1
 70
     1
102
RTVSPropertyOp2
 70
     1
102
RTVSPropertyOp3
 70
     1
102
RTVSPropertyOp4
 70
     1
102
RTVSPropertyOp5
 70
     1
102
RTVSPropertyOp6
 70
     1
102
RTVSPropertyOp7
 70
     1
102
RTVSPropertyOp8
 70
     1
102
RTVSPropertyOp9
 70
     1
102
RTVSPropertyOp10
 70
     1
102
RTVSPropertyOp11
 70
     1
102
RTVSPropertyOp12
 70
     1
102
RTVSPropertyOp13
 70
     1
102
RTVSPropertyOp14
 70
     1
102
RTVSPropertyOp15
 70
     1
102
RTVSPropertyOp16
 70
     1
102
RTVSPropertyOp17
 70
     1
102
RTVSPropertyOp18
 70
     1
102
RTVSPropertyOp19
 70
     1
102
RTVSPropertyOp20
 70
     1
102
RTVSPropertyOp21
 70
     1
102
RTVSPropertyOp22
 70
     1
102
RTVSPropertyOp23
 70
     1
102
RTVSPropertyOp24
 70
     1
102
RTVSPropertyOp25
 70
     1
102
RTVSPropertyOp26
 70
     1
102
RTVSPropertyOp27
 70
     1
  0
XRECORD
  5
562
102
{ACAD_REACTORS
330
561
102
}
330
561
100
AcDbXrecord
280
     1
102
RTVSPropertyOp0
 70
     1
102
RTVSPropertyOp1
 70
     1
102
RTVSPropertyOp2
 70
     1
102
RTVSPropertyOp3
 70
     1
102
RTVSPropertyOp4
 70
     1
102
RTVSPropertyOp5
 70
     1
102
RTVSPropertyOp6
 70
     1
102
RTVSPropertyOp7
 70
     1
102
RTVSPropertyOp8
 70
     1
102
RTVSPropertyOp9
 70
     1
102
RTVSPropertyOp10
 70
     1
102
RTVSPropertyOp11
 70
     1
102
RTVSPropertyOp12
 70
     1
102
RTVSPropertyOp13
 70
     1
102
RTVSPropertyOp14
 70
     1
102
RTVSPropertyOp15
 70
     1
102
RTVSPropertyOp16
 70
     1
102
RTVSPropertyOp17
 70
     1
102
RTVSPropertyOp18
 70
     1
102
RTVSPropertyOp19
 70
     1
102
RTVSPropertyOp20
 70
     1
102
RTVSPropertyOp21
 70
     1
102
RTVSPropertyOp22
 70
     1
102
RTVSPropertyOp23
 70
     1
102
RTVSPropertyOp24
 70
     1
102
RTVSPropertyOp25
 70
     1
102
RTVSPropertyOp26
 70
     1
102
RTVSPropertyOp27
 70
     1
  0
XRECORD
  5
560
102
{ACAD_REACTORS
330
55F
102
}
330
55F
100
AcDbXrecord
280
     1
102
RTVSPropertyOp0
 70
     1
102
RTVSPropertyOp1
 70
     1
102
RTVSPropertyOp2
 70
     1
102
RTVSPropertyOp3
 70
     1
102
RTVSPropertyOp4
 70
     1
102
RTVSPropertyOp5
 70
     1
102
RTVSPropertyOp6
 70
     1
102
RTVSPropertyOp7
 70
     1
102
RTVSPropertyOp8
 70
     1
102
RTVSPropertyOp9
 70
     1
102
RTVSPropertyOp10
 70
     1
102
RTVSPropertyOp11
 70
     1
102
RTVSPropertyOp12
 70
     1
102
RTVSPropertyOp13
 70
     1
102
RTVSPropertyOp14
 70
     1
102
RTVSPropertyOp15
 70
     1
102
RTVSPropertyOp16
 70
     1
102
RTVSPropertyOp17
 70
     1
102
RTVSPropertyOp18
 70
     1
102
RTVSPropertyOp19
 70
     1
102
RTVSPropertyOp20
 70
     1
102
RTVSPropertyOp21
 70
     1
102
RTVSPropertyOp22
 70
     1
102
RTVSPropertyOp23
 70
     1
102
RTVSPropertyOp24
 70
     1
102
RTVSPropertyOp25
 70
     1
102
RTVSPropertyOp26
 70
     1
102
RTVSPropertyOp27
 70
     1
  0
XRECORD
  5
55C
102
{ACAD_REACTORS
330
55B
102
}
330
55B
100
AcDbXrecord
280
     1
102
RTVSPropertyOp0
 70
     1
102
RTVSPropertyOp1
 70
     1
102
RTVSPropertyOp2
 70
     1
102
RTVSPropertyOp3
 70
     1
102
RTVSPropertyOp4
 70
     1
102
RTVSPropertyOp5
 70
     1
102
RTVSPropertyOp6
 70
     1
102
RTVSPropertyOp7
 70
     1
102
RTVSPropertyOp8
 70
     1
102
RTVSPropertyOp9
 70
     1
102
RTVSPropertyOp10
 70
     1
102
RTVSPropertyOp11
 70
     1
102
RTVSPropertyOp12
 70
     1
102
RTVSPropertyOp13
 70
     1
102
RTVSPropertyOp14
 70
     1
102
RTVSPropertyOp15
 70
     1
102
RTVSPropertyOp16
 70
     1
102
RTVSPropertyOp17
 70
     1
102
RTVSPropertyOp18
 70
     1
102
RTVSPropertyOp19
 70
     1
102
RTVSPropertyOp20
 70
     1
102
RTVSPropertyOp21
 70
     1
102
RTVSPropertyOp22
 70
     1
102
RTVSPropertyOp23
 70
     1
102
RTVSPropertyOp24
 70
     1
102
RTVSPropertyOp25
 70
     1
102
RTVSPropertyOp26
 70
     1
102
RTVSPropertyOp27
 70
     1
  0
XRECORD
  5
56A
102
{ACAD_REACTORS
330
569
102
}
330
569
100
AcDbXrecord
280
     1
102
RTVSPropertyOp0
 70
     1
102
RTVSPropertyOp1
 70
     1
102
RTVSPropertyOp2
 70
     1
102
RTVSPropertyOp3
 70
     1
102
RTVSPropertyOp4
 70
     1
102
RTVSPropertyOp5
 70
     1
102
RTVSPropertyOp6
 70
     1
102
RTVSPropertyOp7
 70
     1
102
RTVSPropertyOp8
 70
     1
102
RTVSPropertyOp9
 70
     1
102
RTVSPropertyOp10
 70
     1
102
RTVSPropertyOp11
 70
     1
102
RTVSPropertyOp12
 70
     1
102
RTVSPropertyOp13
 70
     1
102
RTVSPropertyOp14
 70
     1
102
RTVSPropertyOp15
 70
     1
102
RTVSPropertyOp16
 70
     1
102
RTVSPropertyOp17
 70
     1
102
RTVSPropertyOp18
 70
     1
102
RTVSPropertyOp19
 70
     1
102
RTVSPropertyOp20
 70
     1
102
RTVSPropertyOp21
 70
     1
102
RTVSPropertyOp22
 70
     1
102
RTVSPropertyOp23
 70
     1
102
RTVSPropertyOp24
 70
     1
102
RTVSPropertyOp25
 70
     1
102
RTVSPropertyOp26
 70
     1
102
RTVSPropertyOp27
 70
     1
  0
XRECORD
  5
572
102
{ACAD_REACTORS
330
571
102
}
330
571
100
AcDbXrecord
280
     1
102
RTVSPropertyOp0
 70
     1
102
RTVSPropertyOp1
 70
     1
102
RTVSPropertyOp2
 70
     1
102
RTVSPropertyOp3
 70
     1
102
RTVSPropertyOp4
 70
     1
102
RTVSPropertyOp5
 70
     1
102
RTVSPropertyOp6
 70
     1
102
RTVSPropertyOp7
 70
     1
102
RTVSPropertyOp8
 70
     1
102
RTVSPropertyOp9
 70
     1
102
RTVSPropertyOp10
 70
     1
102
RTVSPropertyOp11
 70
     1
102
RTVSPropertyOp12
 70
     1
102
RTVSPropertyOp13
 70
     1
102
RTVSPropertyOp14
 70
     1
102
RTVSPropertyOp15
 70
     1
102
RTVSPropertyOp16
 70
     1
102
RTVSPropertyOp17
 70
     1
102
RTVSPropertyOp18
 70
     1
102
RTVSPropertyOp19
 70
     1
102
RTVSPropertyOp20
 70
     1
102
RTVSPropertyOp21
 70
     1
102
RTVSPropertyOp22
 70
     1
102
RTVSPropertyOp23
 70
     1
102
RTVSPropertyOp24
 70
     1
102
RTVSPropertyOp25
 70
     1
102
RTVSPropertyOp26
 70
     1
102
RTVSPropertyOp27
 70
     1
  0
XRECORD
  5
564
102
{ACAD_REACTORS
330
563
102
}
330
563
100
AcDbXrecord
280
     1
102
RTVSPropertyOp0
 70
     1
102
RTVSPropertyOp1
 70
     1
102
RTVSPropertyOp2
 70
     1
102
RTVSPropertyOp3
 70
     1
102
RTVSPropertyOp4
 70
     1
102
RTVSPropertyOp5
 70
     1
102
RTVSPropertyOp6
 70
     1
102
RTVSPropertyOp7
 70
     1
102
RTVSPropertyOp8
 70
     1
102
RTVSPropertyOp9
 70
     1
102
RTVSPropertyOp10
 70
     1
102
RTVSPropertyOp11
 70
     1
102
RTVSPropertyOp12
 70
     1
102
RTVSPropertyOp13
 70
     1
102
RTVSPropertyOp14
 70
     1
102
RTVSPropertyOp15
 70
     1
102
RTVSPropertyOp16
 70
     1
102
RTVSPropertyOp17
 70
     1
102
RTVSPropertyOp18
 70
     1
102
RTVSPropertyOp19
 70
     1
102
RTVSPropertyOp20
 70
     1
102
RTVSPropertyOp21
 70
     1
102
RTVSPropertyOp22
 70
     1
102
RTVSPropertyOp23
 70
     1
102
RTVSPropertyOp24
 70
     1
102
RTVSPropertyOp25
 70
     1
102
RTVSPropertyOp26
 70
     1
102
RTVSPropertyOp27
 70
     1
  0
XRECORD
  5
568
102
{ACAD_REACTORS
330
567
102
}
330
567
100
AcDbXrecord
280
     1
102
RTVSPropertyOp0
 70
     1
102
RTVSPropertyOp1
 70
     1
102
RTVSPropertyOp2
 70
     1
102
RTVSPropertyOp3
 70
     1
102
RTVSPropertyOp4
 70
     1
102
RTVSPropertyOp5
 70
     1
102
RTVSPropertyOp6
 70
     1
102
RTVSPropertyOp7
 70
     1
102
RTVSPropertyOp8
 70
     1
102
RTVSPropertyOp9
 70
     1
102
RTVSPropertyOp10
 70
     1
102
RTVSPropertyOp11
 70
     1
102
RTVSPropertyOp12
 70
     1
102
RTVSPropertyOp13
 70
     1
102
RTVSPropertyOp14
 70
     1
102
RTVSPropertyOp15
 70
     1
102
RTVSPropertyOp16
 70
     1
102
RTVSPropertyOp17
 70
     1
102
RTVSPropertyOp18
 70
     1
102
RTVSPropertyOp19
 70
     1
102
RTVSPropertyOp20
 70
     1
102
RTVSPropertyOp21
 70
     1
102
RTVSPropertyOp22
 70
     1
102
RTVSPropertyOp23
 70
     1
102
RTVSPropertyOp24
 70
     1
102
RTVSPropertyOp25
 70
     1
102
RTVSPropertyOp26
 70
     1
102
RTVSPropertyOp27
 70
     1
  0
XRECORD
  5
570
102
{ACAD_REACTORS
330
56F
102
}
330
56F
100
AcDbXrecord
280
     1
102
RTVSPropertyOp0
 70
     1
102
RTVSPropertyOp1
 70
     1
102
RTVSPropertyOp2
 70
     1
102
RTVSPropertyOp3
 70
     1
102
RTVSPropertyOp4
 70
     1
102
RTVSPropertyOp5
 70
     1
102
RTVSPropertyOp6
 70
     1
102
RTVSPropertyOp7
 70
     1
102
RTVSPropertyOp8
 70
     1
102
RTVSPropertyOp9
 70
     1
102
RTVSPropertyOp10
 70
     1
102
RTVSPropertyOp11
 70
     1
102
RTVSPropertyOp12
 70
     1
102
RTVSPropertyOp13
 70
     1
102
RTVSPropertyOp14
 70
     1
102
RTVSPropertyOp15
 70
     1
102
RTVSPropertyOp16
 70
     1
102
RTVSPropertyOp17
 70
     1
102
RTVSPropertyOp18
 70
     1
102
RTVSPropertyOp19
 70
     1
102
RTVSPropertyOp20
 70
     1
102
RTVSPropertyOp21
 70
     1
102
RTVSPropertyOp22
 70
     1
102
RTVSPropertyOp23
 70
     1
102
RTVSPropertyOp24
 70
     1
102
RTVSPropertyOp25
 70
     1
102
RTVSPropertyOp26
 70
     1
102
RTVSPropertyOp27
 70
     1
  0
XRECORD
  5
554
102
{ACAD_REACTORS
330
553
102
}
330
553
100
AcDbXrecord
280
     1
102
RTVSPropertyOp0
 70
     1
102
RTVSPropertyOp1
 70
     1
102
RTVSPropertyOp2
 70
     1
102
RTVSPropertyOp3
 70
     1
102
RTVSPropertyOp4
 70
     1
102
RTVSPropertyOp5
 70
     1
102
RTVSPropertyOp6
 70
     1
102
RTVSPropertyOp7
 70
     1
102
RTVSPropertyOp8
 70
     1
102
RTVSPropertyOp9
 70
     1
102
RTVSPropertyOp10
 70
     1
102
RTVSPropertyOp11
 70
     1
102
RTVSPropertyOp12
 70
     1
102
RTVSPropertyOp13
 70
     1
102
RTVSPropertyOp14
 70
     1
102
RTVSPropertyOp15
 70
     1
102
RTVSPropertyOp16
 70
     1
102
RTVSPropertyOp17
 70
     1
102
RTVSPropertyOp18
 70
     1
102
RTVSPropertyOp19
 70
     1
102
RTVSPropertyOp20
 70
     1
102
RTVSPropertyOp21
 70
     1
102
RTVSPropertyOp22
 70
     1
102
RTVSPropertyOp23
 70
     1
102
RTVSPropertyOp24
 70
     1
102
RTVSPropertyOp25
 70
     1
102
RTVSPropertyOp26
 70
     1
102
RTVSPropertyOp27
 70
     1
  0
XRECORD
  5
556
102
{ACAD_REACTORS
330
555
102
}
330
555
100
AcDbXrecord
280
     1
102
RTVSPropertyOp0
 70
     1
102
RTVSPropertyOp1
 70
     1
102
RTVSPropertyOp2
 70
     1
102
RTVSPropertyOp3
 70
     1
102
RTVSPropertyOp4
 70
     1
102
RTVSPropertyOp5
 70
     1
102
RTVSPropertyOp6
 70
     1
102
RTVSPropertyOp7
 70
     1
102
RTVSPropertyOp8
 70
     1
102
RTVSPropertyOp9
 70
     1
102
RTVSPropertyOp10
 70
     1
102
RTVSPropertyOp11
 70
     1
102
RTVSPropertyOp12
 70
     1
102
RTVSPropertyOp13
 70
     1
102
RTVSPropertyOp14
 70
     1
102
RTVSPropertyOp15
 70
     1
102
RTVSPropertyOp16
 70
     1
102
RTVSPropertyOp17
 70
     1
102
RTVSPropertyOp18
 70
     1
102
RTVSPropertyOp19
 70
     1
102
RTVSPropertyOp20
 70
     1
102
RTVSPropertyOp21
 70
     1
102
RTVSPropertyOp22
 70
     1
102
RTVSPropertyOp23
 70
     1
102
RTVSPropertyOp24
 70
     1
102
RTVSPropertyOp25
 70
     1
102
RTVSPropertyOp26
 70
     1
102
RTVSPropertyOp27
 70
     1
  0
XRECORD
  5
558
102
{ACAD_REACTORS
330
557
102
}
330
557
100
AcDbXrecord
280
     1
102
RTVSPropertyOp0
 70
     1
102
RTVSPropertyOp1
 70
     1
102
RTVSPropertyOp2
 70
     1
102
RTVSPropertyOp3
 70
     1
102
RTVSPropertyOp4
 70
     1
102
RTVSPropertyOp5
 70
     1
102
RTVSPropertyOp6
 70
     1
102
RTVSPropertyOp7
 70
     1
102
RTVSPropertyOp8
 70
     1
102
RTVSPropertyOp9
 70
     1
102
RTVSPropertyOp10
 70
     1
102
RTVSPropertyOp11
 70
     1
102
RTVSPropertyOp12
 70
     1
102
RTVSPropertyOp13
 70
     1
102
RTVSPropertyOp14
 70
     1
102
RTVSPropertyOp15
 70
     1
102
RTVSPropertyOp16
 70
     1
102
RTVSPropertyOp17
 70
     1
102
RTVSPropertyOp18
 70
     1
102
RTVSPropertyOp19
 70
     1
102
RTVSPropertyOp20
 70
     1
102
RTVSPropertyOp21
 70
     1
102
RTVSPropertyOp22
 70
     1
102
RTVSPropertyOp23
 70
     1
102
RTVSPropertyOp24
 70
     1
102
RTVSPropertyOp25
 70
     1
102
RTVSPropertyOp26
 70
     1
102
RTVSPropertyOp27
 70
     1
  0
XRECORD
  5
55A
102
{ACAD_REACTORS
330
559
102
}
330
559
100
AcDbXrecord
280
     1
102
RTVSPropertyOp0
 70
     1
102
RTVSPropertyOp1
 70
     1
102
RTVSPropertyOp2
 70
     1
102
RTVSPropertyOp3
 70
     1
102
RTVSPropertyOp4
 70
     1
102
RTVSPropertyOp5
 70
     1
102
RTVSPropertyOp6
 70
     1
102
RTVSPropertyOp7
 70
     1
102
RTVSPropertyOp8
 70
     1
102
RTVSPropertyOp9
 70
     1
102
RTVSPropertyOp10
 70
     1
102
RTVSPropertyOp11
 70
     1
102
RTVSPropertyOp12
 70
     1
102
RTVSPropertyOp13
 70
     1
102
RTVSPropertyOp14
 70
     1
102
RTVSPropertyOp15
 70
     1
102
RTVSPropertyOp16
 70
     1
102
RTVSPropertyOp17
 70
     1
102
RTVSPropertyOp18
 70
     1
102
RTVSPropertyOp19
 70
     1
102
RTVSPropertyOp20
 70
     1
102
RTVSPropertyOp21
 70
     1
102
RTVSPropertyOp22
 70
     1
102
RTVSPropertyOp23
 70
     1
102
RTVSPropertyOp24
 70
     1
102
RTVSPropertyOp25
 70
     1
102
RTVSPropertyOp26
 70
     1
102
RTVSPropertyOp27
 70
     1
  0
XRECORD
  5
56E
102
{ACAD_REACTORS
330
56D
102
}
330
56D
100
AcDbXrecord
280
     1
102
RTVSPropertyOp0
 70
     1
102
RTVSPropertyOp1
 70
     1
102
RTVSPropertyOp2
 70
     1
102
RTVSPropertyOp3
 70
     1
102
RTVSPropertyOp4
 70
     1
102
RTVSPropertyOp5
 70
     1
102
RTVSPropertyOp6
 70
     1
102
RTVSPropertyOp7
 70
     1
102
RTVSPropertyOp8
 70
     1
102
RTVSPropertyOp9
 70
     1
102
RTVSPropertyOp10
 70
     1
102
RTVSPropertyOp11
 70
     1
102
RTVSPropertyOp12
 70
     1
102
RTVSPropertyOp13
 70
     1
102
RTVSPropertyOp14
 70
     1
102
RTVSPropertyOp15
 70
     1
102
RTVSPropertyOp16
 70
     1
102
RTVSPropertyOp17
 70
     1
102
RTVSPropertyOp18
 70
     1
102
RTVSPropertyOp19
 70
     1
102
RTVSPropertyOp20
 70
     1
102
RTVSPropertyOp21
 70
     1
102
RTVSPropertyOp22
 70
     1
102
RTVSPropertyOp23
 70
     1
102
RTVSPropertyOp24
 70
     1
102
RTVSPropertyOp25
 70
     1
102
RTVSPropertyOp26
 70
     1
102
RTVSPropertyOp27
 70
     1
  0
XRECORD
  5
566
102
{ACAD_REACTORS
330
565
102
}
330
565
100
AcDbXrecord
280
     1
102
RTVSPropertyOp0
 70
     1
102
RTVSPropertyOp1
 70
     1
102
RTVSPropertyOp2
 70
     1
102
RTVSPropertyOp3
 70
     1
102
RTVSPropertyOp4
 70
     1
102
RTVSPropertyOp5
 70
     1
102
RTVSPropertyOp6
 70
     1
102
RTVSPropertyOp7
 70
     1
102
RTVSPropertyOp8
 70
     1
102
RTVSPropertyOp9
 70
     1
102
RTVSPropertyOp10
 70
     1
102
RTVSPropertyOp11
 70
     1
102
RTVSPropertyOp12
 70
     1
102
RTVSPropertyOp13
 70
     1
102
RTVSPropertyOp14
 70
     1
102
RTVSPropertyOp15
 70
     1
102
RTVSPropertyOp16
 70
     1
102
RTVSPropertyOp17
 70
     1
102
RTVSPropertyOp18
 70
     1
102
RTVSPropertyOp19
 70
     1
102
RTVSPropertyOp20
 70
     1
102
RTVSPropertyOp21
 70
     1
102
RTVSPropertyOp22
 70
     1
102
RTVSPropertyOp23
 70
     1
102
RTVSPropertyOp24
 70
     1
102
RTVSPropertyOp25
 70
     1
102
RTVSPropertyOp26
 70
     1
102
RTVSPropertyOp27
 70
     1
  0
XRECORD
  5
56C
102
{ACAD_REACTORS
330
56B
102
}
330
56B
100
AcDbXrecord
280
     1
102
RTVSPropertyOp0
 70
     1
102
RTVSPropertyOp1
 70
     1
102
RTVSPropertyOp2
 70
     1
102
RTVSPropertyOp3
 70
     1
102
RTVSPropertyOp4
 70
     1
102
RTVSPropertyOp5
 70
     1
102
RTVSPropertyOp6
 70
     1
102
RTVSPropertyOp7
 70
     1
102
RTVSPropertyOp8
 70
     1
102
RTVSPropertyOp9
 70
     1
102
RTVSPropertyOp10
 70
     1
102
RTVSPropertyOp11
 70
     1
102
RTVSPropertyOp12
 70
     1
102
RTVSPropertyOp13
 70
     1
102
RTVSPropertyOp14
 70
     1
102
RTVSPropertyOp15
 70
     1
102
RTVSPropertyOp16
 70
     1
102
RTVSPropertyOp17
 70
     1
102
RTVSPropertyOp18
 70
     1
102
RTVSPropertyOp19
 70
     1
102
RTVSPropertyOp20
 70
     1
102
RTVSPropertyOp21
 70
     1
102
RTVSPropertyOp22
 70
     1
102
RTVSPropertyOp23
 70
     1
102
RTVSPropertyOp24
 70
     1
102
RTVSPropertyOp25
 70
     1
102
RTVSPropertyOp26
 70
     1
102
RTVSPropertyOp27
 70
     1
  0
ENDSEC
  0
EOF
